<?xml version="1.0" encoding="UTF-8"?>
<svg version="1.1" xmlns="http://www.w3.org/2000/svg" width="670" height="447">
<path d="M0 0 C221.1 0 442.2 0 670 0 C670 147.51 670 295.02 670 447 C448.9 447 227.8 447 0 447 C0 299.49 0 151.98 0 0 Z " fill="#162333" transform="translate(0,0)"/>
<path d="M0 0 C132.33 0 264.66 0 401 0 C401 0.99 401 1.98 401 3 C484.16 3.495 484.16 3.495 569 4 C569 4.33 569 4.66 569 5 C602.33 5.33 635.66 5.66 670 6 C670 30.42 670 54.84 670 80 C448.9 80 227.8 80 0 80 C0 53.6 0 27.2 0 0 Z " fill="#101728" transform="translate(0,367)"/>
<path d="M0 0 C169.95 0 339.9 0 515 0 C515 0.33 515 0.66 515 1 C591.725 1.495 591.725 1.495 670 2 C670 8.27 670 14.54 670 21 C448.9 21 227.8 21 0 21 C0 14.07 0 7.14 0 0 Z " fill="#0F1523" transform="translate(0,67)"/>
<path d="M0 0 C51.50773544 -0.01722177 103.01547107 -0.03312759 154.52320862 -0.04234314 C155.29283198 -0.0424812 156.06245534 -0.04261925 156.85540062 -0.04276149 C173.60531449 -0.04575855 190.35522838 -0.04852813 207.10514232 -0.05106533 C215.32636116 -0.05231202 223.54758 -0.05360866 231.76879883 -0.05493164 C232.99557624 -0.05512778 232.99557624 -0.05512778 234.24713703 -0.05532788 C260.47280092 -0.05954407 286.69846257 -0.06702017 312.92412512 -0.07629722 C340.00928794 -0.08586028 367.09444955 -0.0919149 394.17961404 -0.09391499 C398.05757394 -0.0942029 401.93553383 -0.09452853 405.81349373 -0.09487724 C406.95768776 -0.09497838 406.95768776 -0.09497838 408.12499681 -0.09508156 C419.38279106 -0.09616588 430.64058173 -0.10012317 441.89837456 -0.10573006 C458.94584113 -0.11405896 475.9933031 -0.11768461 493.04077148 -0.11352539 C494.05692451 -0.11329081 494.05692451 -0.11329081 495.09360588 -0.11305148 C553.39964037 -0.0984277 611.69763522 0.35947429 670 1 C670 4.3 670 7.6 670 11 C498.07 11 326.14 11 149 11 C149 10.67 149 10.34 149 10 C75.245 9.505 75.245 9.505 0 9 C0 6.03 0 3.06 0 0 Z " fill="#1C2334" transform="translate(0,220)"/>
<path d="M0 0 C63.03 0 126.06 0 191 0 C191 0.99 191 1.98 191 3 C255.68 3.33 320.36 3.66 387 4 C387 4.33 387 4.66 387 5 C480.39 5.33 573.78 5.66 670 6 C670 8.97 670 11.94 670 15 C608.29 15 546.58 15 483 15 C483 14.34 483 13.68 483 13 C381.03 13 279.06 13 174 13 C174 11.68 174 10.36 174 9 C116.58 9 59.16 9 0 9 C0 6.03 0 3.06 0 0 Z " fill="#13222D" transform="translate(0,265)"/>
<path d="M0 0 C221.1 0 442.2 0 670 0 C670 3.63 670 7.26 670 11 C574.3 11 478.6 11 380 11 C380 10.67 380 10.34 380 10 C378.58171795 9.99641747 378.58171795 9.99641747 377.13478374 9.99276257 C354.15097331 9.93402411 331.16726818 9.85817652 308.18357372 9.76428509 C297.06892531 9.7192783 285.9543093 9.67987497 274.83959961 9.65356445 C265.15444848 9.63062385 255.46939945 9.59727016 245.78432924 9.55129844 C240.65395061 9.52731296 235.52367343 9.50861915 230.39323997 9.50238609 C225.56777096 9.49635924 220.7425617 9.47644689 215.91718864 9.44572449 C214.14304148 9.4369056 212.36886043 9.43322959 210.59469223 9.43499184 C208.17819629 9.43663474 205.76250152 9.42003066 203.34611511 9.39872742 C202.28532117 9.40599878 202.28532117 9.40599878 201.20309705 9.41341704 C196.33741833 9.34229134 196.33741833 9.34229134 194.52135468 7.5 C191.9806874 4.9949951 188.687353 5.57922874 185.31221008 5.60127258 C184.5215212 5.59462576 183.73083232 5.58797893 182.91618317 5.58113068 C180.25820145 5.56243037 177.6006671 5.56511065 174.94262695 5.56762695 C173.04072429 5.55861408 171.13882746 5.54828803 169.23693848 5.53674316 C164.06577824 5.50909132 158.89472797 5.49987756 153.72350335 5.49388909 C148.32223135 5.48452668 142.92104219 5.45832508 137.51982117 5.43388367 C127.28826449 5.39015616 117.05672383 5.36164762 106.82510203 5.33856028 C95.17828998 5.31154208 83.53156101 5.26762853 71.88480818 5.22227156 C47.92325045 5.12933576 23.96166666 5.05769598 0 5 C0 3.35 0 1.7 0 0 Z " fill="#17233D" transform="translate(0,362)"/>
<path d="M0 0 C127.71 0 255.42 0 387 0 C387 0.33 387 0.66 387 1 C480.39 1.33 573.78 1.66 670 2 C670 4.31 670 6.62 670 9 C619.36788224 9.11325596 568.73576123 9.22489156 518.10362244 9.32835388 C517.34638143 9.32990168 516.58914043 9.33144947 515.80895272 9.33304417 C499.32624854 9.3667254 482.8435438 9.40012847 466.36083848 9.4332476 C458.2700999 9.44950621 450.17936144 9.46582588 442.08862305 9.48217773 C441.28377625 9.48380334 440.47892946 9.48542894 439.64969337 9.4871038 C413.8679554 9.53920519 388.08622809 9.59528593 362.30450344 9.65357857 C335.66487564 9.71378882 309.02524185 9.76968964 282.38559469 9.82065109 C278.5664191 9.82795903 274.7472436 9.83531303 270.92806816 9.84269524 C270.17687673 9.84414581 269.4256853 9.84559638 268.6517305 9.84709091 C257.58977848 9.86856066 246.52783829 9.89352996 235.46589851 9.92053413 C218.68829594 9.96129255 201.91068976 9.99622449 185.13305664 10.02172852 C184.46384613 10.02275662 183.79463562 10.02378473 183.105146 10.02484399 C122.0659669 10.11711705 61.03539225 9.63866224 0 9 C0 6.03 0 3.06 0 0 Z " fill="#0E1921" transform="translate(0,249)"/>
<path d="M0 0 C221.1 0 442.2 0 670 0 C670 2.97 670 5.94 670 9 C601.69 9 533.38 9 463 9 C463 8.67 463 8.34 463 8 C476.86 8 490.72 8 505 8 C505 7.34 505 6.68 505 6 C503.14358478 6.24377963 503.14358478 6.24377963 501.24966621 6.49248409 C492.52935073 7.35495641 483.7581795 7.13409036 475.00534058 7.12025452 C472.95493371 7.12069087 470.90452689 7.12156697 468.85412037 7.12284368 C463.23292769 7.12507598 457.61175412 7.12108466 451.99056387 7.11606562 C445.92387996 7.11174315 439.8571971 7.11320882 433.79051208 7.1139679 C423.28391146 7.11449199 412.77731634 7.11139211 402.27071762 7.10573006 C391.25418951 7.09980845 380.23766388 7.09596318 369.22113419 7.09487724 C368.53557993 7.0948085 367.85002567 7.09473976 367.14369704 7.09466894 C363.66196439 7.0943306 360.18023175 7.09402922 356.6984991 7.09374207 C332.0519274 7.09164292 307.40535894 7.08490909 282.75878906 7.07543945 C258.81835955 7.06625176 234.87793092 7.05916974 210.9375 7.05493164 C209.83013638 7.05473435 209.83013638 7.05473435 208.70040177 7.05453308 C201.28651502 7.05321453 193.87262825 7.05193872 186.45874148 7.05069422 C171.35645627 7.04815816 156.25417111 7.04533691 141.15188599 7.04234314 C140.11036981 7.0421372 140.11036981 7.0421372 139.0478129 7.04192711 C92.69854056 7.03272996 46.34927012 7.01686434 0 7 C0 4.69 0 2.38 0 0 Z " fill="#162231" transform="translate(0,154)"/>
<path d="M0 0 C221.1 0 442.2 0 670 0 C670 2.31 670 4.62 670 7 C448.9 7 227.8 7 0 7 C0 4.69 0 2.38 0 0 Z " fill="#1C2531" transform="translate(0,0)"/>
<path d="M0 0 C170.61 0 341.22 0 517 0 C517 0.33 517 0.66 517 1 C567.49 1.33 617.98 1.66 670 2 C670 3.65 670 5.3 670 7 C614.55202399 7.11291505 559.10404524 7.22439751 503.65605164 7.32835388 C502.83070767 7.32990168 502.0053637 7.33144947 501.15500931 7.33304417 C483.20265471 7.3667023 465.25029965 7.40010556 447.29794409 7.4332476 C438.48956355 7.44951039 429.68118311 7.46582929 420.87280273 7.48217773 C419.99642946 7.48380334 419.1200562 7.48542894 418.21712616 7.4871038 C389.99375959 7.53948202 361.77040184 7.59553938 333.54704639 7.65357857 C304.45702027 7.71338003 275.36698907 7.76932247 246.2769467 7.82065109 C242.13445699 7.82796214 237.99196736 7.8353157 233.84947777 7.84269524 C233.0344611 7.84414581 232.21944444 7.84559638 231.3797303 7.84709091 C219.24061246 7.86879759 207.10150429 7.89377468 194.96239662 7.92053413 C176.70060803 7.96061397 158.43881636 7.9957087 140.17700195 8.02172852 C139.46255482 8.02275662 138.74810769 8.02378473 138.01201065 8.02484399 C92.00174786 8.09005997 46.00264109 7.89208489 0 7 C0 4.69 0 2.38 0 0 Z " fill="#101723" transform="translate(0,51)"/>
<path d="M0 0 C221.1 0 442.2 0 670 0 C670 2.97 670 5.94 670 9 C619.51 9 569.02 9 517 9 C517 8.67 517 8.34 517 8 C372.13 7.67 227.26 7.34 78 7 C78 6.67 78 6.34 78 6 C52.26 5.67 26.52 5.34 0 5 C0 3.35 0 1.7 0 0 Z " fill="#1D2938" transform="translate(0,24)"/>
<path d="M0 0 C157.41 0 314.82 0 477 0 C477 0.33 477 0.66 477 1 C477.6091862 0.99888969 478.2183724 0.99777939 478.84601879 0.99663544 C519.6278974 0.92619221 560.40369798 1.10701483 601.18406284 1.44538212 C608.72327488 1.50783464 616.26250938 1.56736072 623.80174601 1.62675762 C639.20118918 1.74813978 654.60060349 1.87282641 670 2 C670 4.31 670 6.62 670 9 C638.65 9 607.3 9 575 9 C575 8.34 575 7.68 575 7 C385.25 7 195.5 7 0 7 C0 4.69 0 2.38 0 0 Z " fill="#1D2B3F" transform="translate(0,121)"/>
<path d="M0 0 C132.33 0 264.66 0 401 0 C401 1.98 401 3.96 401 6 C489.77 6 578.54 6 670 6 C670 6.99 670 7.98 670 9 C491.47 9 312.94 9 129 9 C129 8.67 129 8.34 129 8 C86.43 7.67 43.86 7.34 0 7 C0 4.69 0 2.38 0 0 Z " fill="#1F2F42" transform="translate(0,242)"/>
<path d="M0 0 C177.87 0 355.74 0 539 0 C539 0.99 539 1.98 539 3 C603.845 3.495 603.845 3.495 670 4 C670 4.99 670 5.98 670 7 C448.9 7 227.8 7 0 7 C0 4.69 0 2.38 0 0 Z " fill="#0F161E" transform="translate(0,29)"/>
<path d="M0 0 C221.1 0 442.2 0 670 0 C670 2.97 670 5.94 670 9 C581.23 9 492.46 9 401 9 C401 7.02 401 5.04 401 3 C400.45347466 3.00249569 399.90694931 3.00499138 399.34386259 3.0075627 C366.28523261 3.15832327 333.22657674 3.30063017 300.16786918 3.4332476 C296.11785332 3.44950122 292.06783771 3.4658194 288.01782227 3.48217773 C287.21218969 3.48543066 286.40655712 3.48868358 285.57651144 3.49203508 C274.41369216 3.53723982 263.25089272 3.58586275 252.08810107 3.6374263 C232.74756876 3.72676081 213.40701852 3.80882066 194.06640625 3.87890625 C193.30342037 3.88168644 192.5404345 3.88446663 191.75432783 3.88733107 C127.83026929 4.11872587 63.92016292 3.72621023 0 3 C0 2.01 0 1.02 0 0 Z " fill="#151925" transform="translate(0,239)"/>
<path d="M0 0 C0 1.98 0 3.96 0 6 C-37.59675164 6.21199659 -75.19363419 6.39257662 -112.79063863 6.5528124 C-115.0528044 6.56245866 -117.31496998 6.57214981 -119.57713556 6.58184195 C-213.53763706 6.98329848 -307.49516731 7.02488366 -488.59383363 6.57217997 C-491.94814863 6.56246917 -495.30246371 6.55278906 -498.65677881 6.54311228 C-555.77123887 6.37813709 -612.88564355 6.19758705 -670 6 C-670 4.35 -670 2.7 -670 1 C-621.55690167 0.90382491 -573.11380263 0.8080121 -524.67070007 0.71398926 C-523.5812724 0.71187465 -523.5812724 0.71187465 -522.46983609 0.70971733 C-506.65515434 0.67902267 -490.84047247 0.64838909 -475.02579047 0.61781773 C-467.26125287 0.60280773 -459.4967153 0.58778435 -451.73217773 0.57275391 C-450.5736756 0.57051164 -450.5736756 0.57051164 -449.39176938 0.56822408 C-426.23658826 0.52340175 -403.08140865 0.47786207 -379.92623002 0.43177553 C-344.17608234 0.36063234 -308.42593255 0.29065939 -272.67577829 0.22289652 C-271.2168636 0.22013107 -269.7579489 0.21736418 -268.29903422 0.21459585 C-181.73473087 0.05034643 -95.17061171 -0.08051002 0 0 Z " fill="#111C2D" transform="translate(670,328)"/>
<path d="M0 0 C221.1 0 442.2 0 670 0 C670 1.98 670 3.96 670 6 C610.2906273 6.03058248 550.58125317 6.05070813 490.87187368 6.06185675 C487.4485261 6.06249793 484.02517853 6.06315682 480.60183096 6.06381607 C377.70944407 6.08331382 274.81735848 6.08885137 112.7445696 5.50902146 C110.55296242 5.49996057 108.36135513 5.4909277 106.16974783 5.48189783 C70.77976334 5.33590498 35.38984265 5.17727261 0 5 C0 3.35 0 1.7 0 0 Z " fill="#161C2B" transform="translate(0,215)"/>
<path d="M0 0 C132.33 0 264.66 0 401 0 C401 0.99 401 1.98 401 3 C534.155 3.495 534.155 3.495 670 4 C670 4.99 670 5.98 670 7 C618.57938466 7.12907989 567.15876564 7.25660031 515.73814164 7.38218227 C509.5924362 7.39719288 503.44673078 7.4122157 497.30102539 7.42724609 C496.0781235 7.43023671 494.85522161 7.43322732 493.59526209 7.43630856 C476.4943703 7.47815413 459.39348026 7.52065557 442.29259143 7.56369251 C198.87717652 8.17622226 198.87717652 8.17622226 67.14476508 7.55461836 C59.75445776 7.49019704 52.36410537 7.43169124 44.9737488 7.37324238 C29.98244922 7.25456883 14.99120716 7.12987138 0 7 C0 4.69 0 2.38 0 0 Z " fill="#070A0F" transform="translate(0,305)"/>
<path d="M0 0 C221.1 0 442.2 0 670 0 C670 1.65 670 3.3 670 5 C448.9 5 227.8 5 0 5 C0 3.35 0 1.7 0 0 Z " fill="#1B2E44" transform="translate(0,312)"/>
<path d="M0 0 C155.43 0 310.86 0 471 0 C471 0.33 471 0.66 471 1 C536.67 1.33 602.34 1.66 670 2 C670 2.99 670 3.98 670 5 C448.9 5 227.8 5 0 5 C0 3.35 0 1.7 0 0 Z " fill="#101A26" transform="translate(0,185)"/>
<path d="M0 0 C132.33 0 264.66 0 401 0 C401 0.99 401 1.98 401 3 C484.16 3.495 484.16 3.495 569 4 C569 4.33 569 4.66 569 5 C602.33 5.33 635.66 5.66 670 6 C670 6.33 670 6.66 670 7 C448.9 7 227.8 7 0 7 C0 4.69 0 2.38 0 0 Z " fill="#090C17" transform="translate(0,367)"/>
<path d="M0 0 C132.33 0 264.66 0 401 0 C401 1.32 401 2.64 401 4 C534.155 4.495 534.155 4.495 670 5 C670 5.66 670 6.32 670 7 C498.07 7 326.14 7 149 7 C149 6.67 149 6.34 149 6 C75.245 5.505 75.245 5.505 0 5 C0 3.35 0 1.7 0 0 Z " fill="#1C3041" transform="translate(0,224)"/>
<path d="M0 0 C221.1 0 442.2 0 670 0 C670 1.65 670 3.3 670 5 C544.6 5 419.2 5 290 5 C290 4.67 290 4.34 290 4 C194.3 3.67 98.6 3.34 0 3 C0 2.01 0 1.02 0 0 Z " fill="#1D293D" transform="translate(0,118)"/>
<path d="M0 0 C221.1 0 442.2 0 670 0 C670 1.65 670 3.3 670 5 C576.94 5 483.88 5 388 5 C388 4.67 388 4.34 388 4 C195.94 3.505 195.94 3.505 0 3 C0 2.01 0 1.02 0 0 Z " fill="#222D40" transform="translate(0,182)"/>
<path d="M0 0 C221.1 0 442.2 0 670 0 C670 1.65 670 3.3 670 5 C566.05 5 462.1 5 355 5 C355 4.67 355 4.34 355 4 C237.85 3.67 120.7 3.34 0 3 C0 2.01 0 1.02 0 0 Z " fill="#151E34" transform="translate(0,408)"/>
<path d="M0 0 C221.1 0 442.2 0 670 0 C670 1.65 670 3.3 670 5 C563.74 5 457.48 5 348 5 C348 4.67 348 4.34 348 4 C233.16 3.67 118.32 3.34 0 3 C0 2.01 0 1.02 0 0 Z " fill="#18233E" transform="translate(0,374)"/>
<path d="M0 0 C189.75 0 379.5 0 575 0 C575 0.66 575 1.32 575 2 C606.35 2 637.7 2 670 2 C670 2.99 670 3.98 670 5 C616.54 5 563.08 5 508 5 C508 4.67 508 4.34 508 4 C340.36 3.67 172.72 3.34 0 3 C0 2.01 0 1.02 0 0 Z " fill="#202C40" transform="translate(0,128)"/>
<path d="M0 0 C49.53761211 -0.01724519 99.07522443 -0.03314728 148.61283875 -0.04234314 C149.3546018 -0.0424812 150.09636486 -0.04261925 150.86060559 -0.04276149 C167.00929887 -0.04575947 183.15799217 -0.04852891 199.30668553 -0.05106533 C207.23432356 -0.05231188 215.16196159 -0.05360854 223.08959961 -0.05493164 C223.87819038 -0.0550624 224.66678116 -0.05519316 225.47926862 -0.05532788 C250.70608396 -0.05953406 275.93289694 -0.06700192 301.15971087 -0.07629722 C327.24243857 -0.08588966 353.32516498 -0.09192131 379.40789441 -0.09391499 C383.15358944 -0.09420284 386.89928446 -0.09452847 390.64497948 -0.09487724 C391.75000802 -0.09497838 391.75000802 -0.09497838 392.87736037 -0.09508156 C403.69449538 -0.09616055 414.51162662 -0.10009998 425.32876015 -0.10573006 C441.76906048 -0.1141223 458.20935597 -0.11764793 474.6496582 -0.11352539 C475.96519767 -0.11319977 477.28073714 -0.11287414 478.63614143 -0.11253865 C542.42648275 -0.09176832 606.21265226 0.41766111 670 1 C670 2.32 670 3.64 670 5 C626.11 5 582.22 5 537 5 C537 4.67 537 4.34 537 4 C271.185 3.505 271.185 3.505 0 3 C0 2.01 0 1.02 0 0 Z " fill="#1B2B3E" transform="translate(0,142)"/>
<path d="M0 0 C132.33 0 264.66 0 401 0 C401 1.32 401 2.64 401 4 C431.36 4 461.72 4 493 4 C493 4.33 493 4.66 493 5 C330.31 5 167.62 5 0 5 C0 3.35 0 1.7 0 0 Z " fill="#1B2846" transform="translate(0,344)"/>
<path d="M0 0 C221.1 0 442.2 0 670 0 C670 0.99 670 1.98 670 3 C604.88331795 3.61814748 539.76971123 4.12250882 474.6496582 4.02172852 C473.6559158 4.02019459 473.6559158 4.02019459 472.64209778 4.01862968 C456.1699648 3.99291253 439.69786146 3.95648941 423.22576069 3.91527187 C412.36550549 3.88809668 401.50524762 3.86407968 390.64497948 3.84269524 C389.53762544 3.84051261 389.53762544 3.84051261 388.40790062 3.83828588 C384.65379007 3.83089996 380.89967943 3.82356052 377.14556875 3.81623887 C351.040963 3.76524517 324.93637269 3.70858136 298.83178711 3.64819336 C273.58439719 3.58980227 248.33700344 3.53422276 223.08959961 3.48217773 C222.3015334 3.48055215 221.51346719 3.47892657 220.70152019 3.47725173 C212.78231792 3.46091935 204.86311554 3.44464121 196.94391308 3.42840267 C180.83355432 3.3953667 164.72319631 3.36197044 148.61283875 3.32835388 C147.8732652 3.3268111 147.13369165 3.32526832 146.37170679 3.32367879 C97.58112451 3.22185871 48.79056071 3.11163376 0 3 C0 2.01 0 1.02 0 0 Z " fill="#10161F" transform="translate(0,95)"/>
<path d="M0 0 C221.1 0 442.2 0 670 0 C670 0.99 670 1.98 670 3 C604.54277597 3.61553698 539.08848626 4.12319282 473.62792969 4.02172852 C472.96645737 4.0207059 472.30498505 4.01968328 471.62346811 4.01862968 C455.18578764 3.99292619 438.74813694 3.95650638 422.31048881 3.91527187 C411.47442585 3.8880892 400.63836021 3.86407414 389.80228424 3.84269524 C388.69711284 3.84051261 388.69711284 3.84051261 387.56961474 3.83828588 C383.82285319 3.83089988 380.07609155 3.82356047 376.32932988 3.81623887 C350.28073925 3.765255 324.23216412 3.7085915 298.18359375 3.64819336 C272.9915424 3.58979519 247.7994872 3.53421595 222.60742188 3.48217773 C221.82098125 3.48055215 221.03454062 3.47892657 220.22426846 3.47725173 C212.32134921 3.46091925 204.41842985 3.44464112 196.51551041 3.42840267 C180.43850124 3.39536734 164.36149283 3.361971 148.28448486 3.32835388 C147.5464541 3.3268111 146.80842333 3.32526832 146.048028 3.32367879 C97.36533859 3.22187141 48.68266774 3.11164233 0 3 C0 2.01 0 1.02 0 0 Z " fill="#0F161F" transform="translate(0,115)"/>
<path d="M0 0 C0.84895534 -0.00024077 1.69791068 -0.00048155 2.57259195 -0.00072962 C17.64834834 -0.00410586 32.72289853 0.07079723 47.79814529 0.19667053 C52.06092401 0.23186625 56.32371912 0.26474973 60.58651733 0.29748535 C67.29999667 0.34931198 74.01346204 0.4027509 80.72692335 0.4568572 C88.40367813 0.5186419 96.08044765 0.57849503 103.7572186 0.63823223 C119.47536938 0.76058475 135.1935012 0.88521239 150.91162109 1.01147461 C150.91162109 2.00147461 150.91162109 2.99147461 150.91162109 4.01147461 C62.64128655 5.02731061 -25.62703308 5.07179791 -120.45556641 4.89038086 C-121.91107945 4.88758815 -123.36659249 4.88479577 -124.82210553 4.88200372 C-160.52452153 4.81334851 -196.22691009 4.73355222 -231.9292914 4.64890091 C-255.05376622 4.59407277 -278.17824599 4.54242717 -301.30273438 4.49365234 C-302.07291918 4.49202676 -302.84310399 4.49040118 -303.63662772 4.48872634 C-311.37671677 4.47239282 -319.11680594 4.4561148 -326.85689519 4.43987728 C-342.60040843 4.40684855 -358.34392088 4.37345133 -374.08743286 4.33982849 C-375.17133733 4.33751432 -375.17133733 4.33751432 -376.27713885 4.3351534 C-423.88089954 4.233476 -471.48464086 4.12320495 -519.08837891 4.01147461 C-519.08837891 3.02147461 -519.08837891 2.03147461 -519.08837891 1.01147461 C-472.39407401 0.91588024 -425.6997689 0.82039079 -379.00546265 0.72546387 C-378.31203122 0.72405413 -377.6185998 0.72264439 -376.9041553 0.72119194 C-361.82634247 0.69053956 -346.74852959 0.65990619 -331.67071668 0.62929234 C-324.27429288 0.61427459 -316.8778691 0.59925266 -309.48144531 0.58422852 C-308.37752017 0.58198625 -308.37752017 0.58198625 -307.25129351 0.57969869 C-283.48796632 0.53142928 -259.7246397 0.48288434 -235.96131337 0.43419326 C-211.49811043 0.38406961 -187.03490692 0.33423043 -162.5717027 0.28473851 C-159.09963463 0.27771398 -155.62756656 0.27068627 -152.1554985 0.26365662 C-151.47228763 0.26227347 -150.78907676 0.26089032 -150.08516253 0.25946525 C-139.18093516 0.23738168 -128.2767084 0.21500687 -117.37248186 0.19251727 C-106.35339531 0.16979719 -95.33430812 0.14740467 -84.31522031 0.12530482 C-78.36788414 0.11336779 -72.42054831 0.10130253 -66.4732132 0.08885002 C-44.3154784 0.04255119 -22.15778852 0.00306927 0 0 Z " fill="#0E131E" transform="translate(519.08837890625,101.988525390625)"/>
<path d="M0 0 C221.1 0 442.2 0 670 0 C670 0.99 670 1.98 670 3 C657.06454344 3.13584143 644.12904168 3.2662391 631.19347477 3.39115143 C625.17509978 3.44940793 619.15674718 3.50899825 613.13842773 3.57275391 C582.81397993 3.8926985 552.49269702 4.03822572 522.16678099 4.02818167 C519.34010893 4.02732307 516.51343701 4.02685601 513.68676484 4.02647305 C465.73098494 4.01896314 417.7753755 3.91382645 369.81973483 3.80645686 C356.95664347 3.77769531 344.0935497 3.75007871 331.23045576 3.72249681 C308.31371039 3.67332899 285.39696692 3.62332732 262.48022461 3.57275391 C240.29240007 3.52379119 218.10457468 3.47524937 195.91674805 3.42724609 C195.2262476 3.42575204 194.53574715 3.42425798 193.82432244 3.42271865 C186.88661065 3.40770777 179.94889885 3.39270511 173.01118703 3.37770845 C115.34078862 3.25304655 57.67039326 3.12701931 0 3 C0 2.01 0 1.02 0 0 Z " fill="#0F1822" transform="translate(0,173)"/>
<path d="M0 0 C221.1 0 442.2 0 670 0 C670 0.99 670 1.98 670 3 C631.11334244 3.21094384 592.22656808 3.39188037 553.33967459 3.5528124 C551.00977321 3.56245953 548.67987201 3.57215027 546.34997082 3.58184195 C451.8683963 3.97380198 357.38980696 4.02977922 177.40090656 3.57217997 C174.11441619 3.56246873 170.82792572 3.5527888 167.54143524 3.54311228 C111.69423476 3.37846855 55.8470921 3.19799776 0 3 C0 2.01 0 1.02 0 0 Z " fill="#0F151D" transform="translate(0,21)"/>
<path d="M0 0 C221.1 0 442.2 0 670 0 C670 0.99 670 1.98 670 3 C448.9 3 227.8 3 0 3 C0 2.01 0 1.02 0 0 Z " fill="#0A0E19" transform="translate(0,405)"/>
<path d="M0 0 C221.1 0 442.2 0 670 0 C670 0.99 670 1.98 670 3 C448.9 3 227.8 3 0 3 C0 2.01 0 1.02 0 0 Z " fill="#1A2C42" transform="translate(0,154)"/>
<path d="M0 0 C221.1 0 442.2 0 670 0 C670 0.99 670 1.98 670 3 C448.9 3 227.8 3 0 3 C0 2.01 0 1.02 0 0 Z " fill="#19263C" transform="translate(0,112)"/>
<path d="M0 0 C221.1 0 442.2 0 670 0 C670 0.99 670 1.98 670 3 C448.9 3 227.8 3 0 3 C0 2.01 0 1.02 0 0 Z " fill="#1B2138" transform="translate(0,80)"/>
<path d="M0 0 C221.1 0 442.2 0 670 0 C670 0.99 670 1.98 670 3 C448.9 3 227.8 3 0 3 C0 2.01 0 1.02 0 0 Z " fill="#212E45" transform="translate(0,196)"/>
<path d="M0 0 C221.1 0 442.2 0 670 0 C670 0.99 670 1.98 670 3 C448.9 3 227.8 3 0 3 C0 2.01 0 1.02 0 0 Z " fill="#212E46" transform="translate(0,208)"/>
<path d="M0 0 C221.1 0 442.2 0 670 0 C670 0.99 670 1.98 670 3 C448.9 3 227.8 3 0 3 C0 2.01 0 1.02 0 0 Z " fill="#1C263C" transform="translate(0,92)"/>
<path d="M0 0 C221.1 0 442.2 0 670 0 C670 0.99 670 1.98 670 3 C448.9 3 227.8 3 0 3 C0 2.01 0 1.02 0 0 Z " fill="#1F2E42" transform="translate(0,170)"/>
<path d="M0 0 C189.75 0 379.5 0 575 0 C575 0.33 575 0.66 575 1 C622.025 1.495 622.025 1.495 670 2 C670 2.99 670 3.98 670 5 C638.98 5 607.96 5 576 5 C576 4.34 576 3.68 576 3 C575.28163275 3.01279698 574.56326549 3.02559396 573.82312953 3.03877872 C513.72689372 4.09239409 453.64309303 4.0689186 393.53946812 3.90999443 C384.03062904 3.88495391 374.52178624 3.86287414 365.01293564 3.84269524 C364.32789663 3.84124015 363.64285763 3.83978506 362.93705987 3.83828588 C359.45521635 3.83090267 355.97337274 3.82356251 352.49152909 3.81623887 C328.1100637 3.76487895 303.72861347 3.70820871 279.34716797 3.64819336 C255.72608006 3.59006235 232.10498829 3.53447521 208.48388672 3.48217773 C207.75010592 3.48055215 207.01632511 3.47892657 206.26030853 3.47725173 C198.88842581 3.46092314 191.51654298 3.44464461 184.14466007 3.42840267 C169.13996764 3.39534278 154.13527595 3.36194975 139.13058472 3.32835388 C138.44135985 3.3268111 137.75213498 3.32526832 137.04202451 3.32367879 C91.36133654 3.22138791 45.68066678 3.11131815 0 3 C0 2.01 0 1.02 0 0 Z " fill="#13232D" transform="translate(0,145)"/>
<path d="M0 0 C221.1 0 442.2 0 670 0 C670 0.99 670 1.98 670 3 C448.9 3 227.8 3 0 3 C0 2.01 0 1.02 0 0 Z " fill="#1B243B" transform="translate(0,106)"/>
<path d="M0 0 C173.91 0 347.82 0 527 0 C527 0.33 527 0.66 527 1 C597.785 1.495 597.785 1.495 670 2 C670 2.33 670 2.66 670 3 C611.50733108 3.15309844 553.01464549 3.29806038 494.52193246 3.4332476 C487.49134676 3.44949849 480.46076123 3.46581955 473.43017578 3.48217773 C472.38140176 3.48461614 472.38140176 3.48461614 471.31144039 3.4871038 C450.49188843 3.53553963 429.67234877 3.58769957 408.85281346 3.64281297 C375.91491458 3.72994269 342.97700459 3.8098894 310.0390625 3.87890625 C308.05940929 3.88307654 308.05940929 3.88307654 306.03976309 3.88733107 C204.02276138 4.10087039 102.01406312 3.78213351 0 3 C0 2.01 0 1.02 0 0 Z " fill="#0A131B" transform="translate(0,131)"/>
<path d="M0 0 C188.76 0 377.52 0 572 0 C572.33 0.99 572.66 1.98 573 3 C383.91 3 194.82 3 0 3 C0 2.01 0 1.02 0 0 Z " fill="#0D171D" transform="translate(0,139)"/>
<path d="M0 0 C0 0.66 0 1.32 0 2 C1.01373184 1.99607239 1.01373184 1.99607239 2.04794312 1.99206543 C32.96409574 1.89308463 63.87912567 2.19727319 94.79396224 2.44538212 C102.46805013 2.50691646 110.14215004 2.56688509 117.81625104 2.62675762 C133.54418079 2.74949857 149.27209524 2.87409496 165 3 C165 3.33 165 3.66 165 4 C76.72966546 5.015836 -11.53865418 5.0603233 -106.3671875 4.87890625 C-107.82270054 4.87611354 -109.27821358 4.87332116 -110.73372662 4.87052912 C-146.43614263 4.8018739 -182.13853119 4.72207761 -217.84091249 4.6374263 C-240.96538732 4.58259816 -264.08986708 4.53095257 -287.21435547 4.48217773 C-287.98454027 4.48055215 -288.75472508 4.47892657 -289.54824882 4.47725173 C-297.28833787 4.46091821 -305.02842703 4.44464019 -312.76851628 4.42840267 C-328.51202952 4.39537394 -344.25554197 4.36197672 -359.99905396 4.32835388 C-361.08295842 4.32603971 -361.08295842 4.32603971 -362.18875995 4.32367879 C-409.79252063 4.22200139 -457.39626195 4.11173034 -505 4 C-505 3.01 -505 2.02 -505 1 C-457.94937146 0.90460238 -410.89874287 0.80922898 -363.84811401 0.71398926 C-363.1516745 0.71257952 -362.45523499 0.71116978 -361.73769125 0.70971733 C-346.60193734 0.67907958 -331.46618343 0.64844634 -316.3304295 0.61781773 C-308.90778633 0.60279729 -301.48514317 0.58777586 -294.0625 0.57275391 C-292.95454069 0.57051164 -292.95454069 0.57051164 -291.82419836 0.56822408 C-267.88570037 0.5197774 -243.94720253 0.47126506 -220.00870475 0.42271865 C-195.40739671 0.37282843 -170.80608854 0.3230045 -146.20478021 0.2732639 C-142.72947541 0.26623726 -139.25417061 0.25920986 -135.77886581 0.25218201 C-134.75288793 0.25010728 -134.75288793 0.25010728 -133.70618321 0.24799064 C-122.69893377 0.22572991 -111.69168446 0.20339936 -100.68443521 0.18104266 C-89.61661266 0.15856442 -78.54878996 0.13616147 -67.48096712 0.11383021 C-61.4849392 0.10172998 -55.48891135 0.08959676 -49.49288368 0.07737541 C-44.00277262 0.06618597 -38.51266137 0.05508987 -33.02254997 0.0440678 C-31.03718996 0.04006551 -29.05183002 0.03602905 -27.06647016 0.03195482 C-8.77352244 -0.00555079 -8.77352244 -0.00555079 0 0 Z " fill="#0A121B" transform="translate(505,160)"/>
<path d="M0 0 C221.1 0 442.2 0 670 0 C670 0.99 670 1.98 670 3 C630.92895834 3.03198315 591.85791492 3.05119419 552.78686219 3.06185675 C550.44728442 3.06249732 548.10770664 3.06315649 545.76812887 3.06381607 C451.21257399 3.09002494 356.65777958 2.97374338 176.82872659 2.50902146 C173.55192541 2.49997079 170.27512419 2.49093358 166.99832296 2.48189783 C111.33219457 2.32830837 55.66608699 2.16792358 0 2 C0 1.34 0 0.68 0 0 Z " fill="#20283A" transform="translate(0,190)"/>
<path d="M0 0 C189.75 0 379.5 0 575 0 C575 0.33 575 0.66 575 1 C622.025 1.495 622.025 1.495 670 2 C670 2.33 670 2.66 670 3 C448.9 3 227.8 3 0 3 C0 2.01 0 1.02 0 0 Z " fill="#070913" transform="translate(0,377)"/>
<path d="M0 0 C157.41 0 314.82 0 477 0 C477 0.33 477 0.66 477 1 C477.6091862 0.99888969 478.2183724 0.99777939 478.84601879 0.99663544 C519.6278974 0.92619221 560.40369798 1.10701483 601.18406284 1.44538212 C608.72327488 1.50783464 616.26250938 1.56736072 623.80174601 1.62675762 C639.20118918 1.74813978 654.60060349 1.87282641 670 2 C670 2.33 670 2.66 670 3 C581.72966546 4.015836 493.46134582 4.0603233 398.6328125 3.87890625 C397.17729946 3.87611354 395.72178642 3.87332116 394.26627338 3.87052912 C358.56385737 3.8018739 322.86146881 3.72207761 287.15908751 3.6374263 C264.03461268 3.58259816 240.91013292 3.53095257 217.78564453 3.48217773 C217.01545973 3.48055215 216.24527492 3.47892657 215.45175118 3.47725173 C207.71166213 3.46091821 199.97157297 3.44464019 192.23148372 3.42840267 C176.48797048 3.39537394 160.74445803 3.36197672 145.00094604 3.32835388 C143.91704158 3.32603971 143.91704158 3.32603971 142.81124005 3.32367879 C95.20747937 3.22200139 47.60373805 3.11173034 0 3 C0 2.01 0 1.02 0 0 Z " fill="#070910" transform="translate(0,121)"/>
<path d="M0 0 C128.37 0 256.74 0 389 0 C389 0.33 389 0.66 389 1 C481.73 1.33 574.46 1.66 670 2 C670 2.33 670 2.66 670 3 C448.9 3 227.8 3 0 3 C0 2.01 0 1.02 0 0 Z " fill="#090B16" transform="translate(0,383)"/>
<path d="M0 0 C129.36 0 258.72 0 392 0 C392 0.66 392 1.32 392 2 C483.74 2 575.48 2 670 2 C670 2.33 670 2.66 670 3 C448.9 3 227.8 3 0 3 C0 2.01 0 1.02 0 0 Z " fill="#273C52" transform="translate(0,236)"/>
<path d="M0 0 C151.14 0 302.28 0 458 0 C458 0.33 458 0.66 458 1 C527.96 1.33 597.92 1.66 670 2 C670 2.33 670 2.66 670 3 C581.85977872 3.99151739 493.72187879 4.06371022 396.875 3.87890625 C395.42507172 3.87611354 393.97514343 3.87332116 392.52521515 3.87052912 C356.97820084 3.80190882 321.43121421 3.72211072 285.88423491 3.6374263 C262.86325918 3.5825835 239.84227847 3.53093996 216.82128906 3.48217773 C216.05435542 3.48055215 215.28742178 3.47892657 214.49724773 3.47725173 C206.78972472 3.46091799 199.08220159 3.44464 191.37467838 3.42840267 C175.69786433 3.39537529 160.02105107 3.36197789 144.34423828 3.32835388 C143.62472086 3.3268111 142.90520344 3.32526832 142.16388246 3.32367879 C94.77590752 3.22202806 47.3879521 3.11174843 0 3 C0 2.01 0 1.02 0 0 Z " fill="#060910" transform="translate(0,167)"/>
<path d="M0 0 C221.1 0 442.2 0 670 0 C670 0.66 670 1.32 670 2 C659.68173143 2.13672841 649.363398 2.26704617 639.04496956 2.39115143 C634.24266952 2.44907105 629.44040299 2.50846934 624.63818359 2.57275391 C598.79300334 2.91707543 572.95023186 3.03754821 547.10311159 3.02818167 C544.51452919 3.02732265 541.92594695 3.0268556 539.33736444 3.02647305 C490.59992813 3.01817045 441.86260043 2.90874315 393.12529062 2.80645686 C383.62800338 2.78653811 374.13071533 2.76704316 364.63342667 2.74781799 C363.6062806 2.74573847 363.6062806 2.74573847 362.5583841 2.74361694 C359.07777636 2.73657203 355.5971686 2.72953324 352.11656083 2.72249681 C327.75950923 2.67324546 303.40245923 2.62323857 279.04541016 2.57275391 C255.45166096 2.52385314 231.85791106 2.47531546 208.26416016 2.42724609 C207.53090546 2.42575204 206.79765076 2.42425798 206.04217622 2.42271865 C198.67541189 2.40770876 191.30864755 2.392706 183.9418832 2.37770845 C168.9483261 2.34718382 153.9547691 2.31661173 138.96121216 2.28601074 C138.27253645 2.28460525 137.58386074 2.28319976 136.87431608 2.28175168 C91.24954241 2.18863261 45.62477102 2.09440557 0 2 C0 1.34 0 0.68 0 0 Z " fill="#172533" transform="translate(0,134)"/>
<path d="M0 0 C127.71 0 255.42 0 387 0 C387 0.66 387 1.32 387 2 C427.92 2 468.84 2 511 2 C511 2.33 511 2.66 511 3 C342.37 3 173.74 3 0 3 C0 2.01 0 1.02 0 0 Z " fill="#25445C" transform="translate(0,308)"/>
<path d="M0 0 C132.33 0 264.66 0 401 0 C401 0.99 401 1.98 401 3 C268.67 3 136.34 3 0 3 C0 2.01 0 1.02 0 0 Z " fill="#213E50" transform="translate(0,224)"/>
<path d="M0 0 C132.33 0 264.66 0 401 0 C401 0.99 401 1.98 401 3 C268.67 3 136.34 3 0 3 C0 2.01 0 1.02 0 0 Z " fill="#243D52" transform="translate(0,242)"/>
<path d="M0 0 C57.42 0 114.84 0 174 0 C174 1.32 174 2.64 174 4 C240.33 4 306.66 4 375 4 C375 4.33 375 4.66 375 5 C251.25 5 127.5 5 0 5 C0 3.35 0 1.7 0 0 Z " fill="#233C4C" transform="translate(0,274)"/>
<path d="M0 0 C42.24 0 84.48 0 128 0 C128 0.66 128 1.32 128 2 C306.86 2 485.72 2 670 2 C670 2.33 670 2.66 670 3 C448.9 3 227.8 3 0 3 C0 2.01 0 1.02 0 0 Z " fill="#314E6C" transform="translate(0,250)"/>
<path d="M0 0 C221.1 0 442.2 0 670 0 C670 0.99 670 1.98 670 3 C638.98 3 607.96 3 576 3 C576 2.34 576 1.68 576 1 C575.28163275 1.01279698 574.56326549 1.02559396 573.82312953 1.03877872 C513.72689372 2.09239409 453.64309303 2.0689186 393.53946812 1.90999443 C384.03062904 1.88495391 374.52178624 1.86287414 365.01293564 1.84269524 C364.32789663 1.84124015 363.64285763 1.83978506 362.93705987 1.83828588 C359.45521635 1.83090267 355.97337274 1.82356251 352.49152909 1.81623887 C328.1100637 1.76487895 303.72861347 1.70820871 279.34716797 1.64819336 C255.72608006 1.59006235 232.10498829 1.53447521 208.48388672 1.48217773 C207.75010592 1.48055215 207.01632511 1.47892657 206.26030853 1.47725173 C198.88842581 1.46092314 191.51654298 1.44464461 184.14466007 1.42840267 C169.13996764 1.39534278 154.13527595 1.36194975 139.13058472 1.32835388 C138.44135985 1.3268111 137.75213498 1.32526832 137.04202451 1.32367879 C91.36133654 1.22138791 45.68066678 1.11131815 0 1 C0 0.67 0 0.34 0 0 Z " fill="#040509" transform="translate(0,147)"/>
<path d="M0 0 C221.1 0 442.2 0 670 0 C670 0.99 670 1.98 670 3 C638.65 3 607.3 3 575 3 C575 2.34 575 1.68 575 1 C385.25 1 195.5 1 0 1 C0 0.67 0 0.34 0 0 Z " fill="#050609" transform="translate(0,127)"/>
<path d="M0 0 C32.67 0 65.34 0 99 0 C99 2.31 99 4.62 99 7 C66.33 7 33.66 7 0 7 C0 4.69 0 2.38 0 0 Z " fill="#131A2C" transform="translate(0,292)"/>
<path d="M0 0 C48.84 0 97.68 0 148 0 C148 0.66 148 1.32 148 2 C228.19 2 308.38 2 391 2 C391 2.33 391 2.66 391 3 C261.97 3 132.94 3 0 3 C0 2.01 0 1.02 0 0 Z " fill="#2C4758" transform="translate(0,230)"/>
<path d="M0 0 C25.74 0 51.48 0 78 0 C78 0.66 78 1.32 78 2 C216.6 2 355.2 2 498 2 C498 2.33 498 2.66 498 3 C333.66 3 169.32 3 0 3 C0 2.01 0 1.02 0 0 Z " fill="#223455" transform="translate(0,62)"/>
<path d="M0 0 C42.24 0 84.48 0 128 0 C128 0.66 128 1.32 128 2 C125.48824836 3.25587582 123.787631 3.12304933 120.9760437 3.12025452 C119.91311096 3.12162918 118.85017822 3.12300385 117.7550354 3.12442017 C116.5840329 3.12082489 115.4130304 3.11722961 114.20654297 3.11352539 C112.97730103 3.11367142 111.74805908 3.11381744 110.48156738 3.1139679 C107.10573658 3.11338954 103.72996652 3.10836537 100.35414648 3.10139394 C96.82806927 3.09515358 93.3019913 3.09455606 89.77590942 3.09336853 C83.09651676 3.09025723 76.41714041 3.08204655 69.73775494 3.07201904 C62.13446975 3.06085166 54.53118379 3.05534588 46.92789245 3.05032361 C31.28525217 3.03986378 15.64262819 3.02226822 0 3 C0 2.01 0 1.02 0 0 Z " fill="#23323B" transform="translate(0,250)"/>
<path d="M0 0 C0 0.33 0 0.66 0 1 C-15.27922026 1.88393529 -30.49831576 2.13486902 -45.80078125 2.09765625 C-48.10247262 2.09578517 -50.4041644 2.09436454 -52.70585632 2.09336853 C-58.68805084 2.08959759 -64.67022008 2.07981541 -70.65240479 2.06866455 C-76.78714659 2.05833205 -82.92189258 2.05384586 -89.05664062 2.04882812 C-101.03777137 2.03818679 -113.01888356 2.02117781 -125 2 C-125 1.34 -125 0.68 -125 0 C-112.24581342 -0.15519897 -99.49156509 -0.30334778 -86.73719788 -0.4429636 C-80.81222102 -0.50803298 -74.88728924 -0.57535865 -68.96240234 -0.64819336 C-63.22413382 -0.71864506 -57.48582366 -0.78270992 -51.74743652 -0.84269524 C-49.5790354 -0.86641775 -47.41065643 -0.89228427 -45.24230957 -0.92053413 C-30.12729774 -1.11549397 -15.09661425 -0.77938338 0 0 Z " fill="#101524" transform="translate(125,301)"/>
<path d="M0 0 C25.74 0 51.48 0 78 0 C78 0.66 78 1.32 78 2 C73.1794082 2.78084281 68.56903243 3.12222644 63.68774414 3.11352539 C62.99421844 3.11367142 62.30069275 3.11381744 61.58615112 3.1139679 C59.31911977 3.1132774 57.05217305 3.10552592 54.78515625 3.09765625 C53.20332382 3.095789 51.62149081 3.09436655 50.03965759 3.09336853 C45.89523699 3.08956755 41.75085195 3.07975814 37.60644531 3.06866455 C33.36979656 3.0583982 29.13314201 3.05385976 24.89648438 3.04882812 C16.59764001 3.03813351 8.29882444 3.02108643 0 3 C0 2.01 0 1.02 0 0 Z " fill="#182031" transform="translate(0,62)"/>
</svg>
