<?xml version="1.0" encoding="UTF-8"?>
<svg version="1.1" xmlns="http://www.w3.org/2000/svg" width="1280" height="720">
<path d="M0 0 C422.4 0 844.8 0 1280 0 C1280 237.6 1280 475.2 1280 720 C857.6 720 435.2 720 0 720 C0 482.4 0 244.8 0 0 Z " fill="#2B95D0" transform="translate(0,0)"/>
<path d="M0 0 C0.70576172 0.61331932 0.70576172 0.61331932 1.42578125 1.23902893 C2.35970703 2.04605507 2.35970703 2.04605507 3.3125 2.86938477 C3.92738281 3.40201431 4.54226562 3.93464386 5.17578125 4.4834137 C34.18385933 28.59962997 77.87499825 33.9361804 114 37 C115.13646973 37.09643799 116.27293945 37.19287598 117.44384766 37.29223633 C130.3242023 38.23949489 143.21570899 38.19947193 156.125 38.1875 C157.32519775 38.18689575 158.52539551 38.1862915 159.76196289 38.18566895 C246.54765784 38.21851461 246.54765784 38.21851461 322.50390625 1.3203125 C324 0 324 0 325 0 C325.23223286 11.95256708 325.40965043 23.90459308 325.51812172 35.85896111 C325.57019776 41.41069389 325.64076735 46.96087752 325.75439453 52.51171875 C325.86346969 57.87406634 325.92292821 63.2349292 325.94877243 68.59830093 C325.96717624 70.63893118 326.00311752 72.67948481 326.05730057 74.71947861 C326.4852893 91.50900093 326.4852893 91.50900093 322.85649109 96.43252563 C320.36396589 98.97580163 317.94200808 101.00547988 315 103 C314.23464432 103.56495178 313.46928864 104.12990356 312.68074036 104.7119751 C310.69783247 106.14200159 308.67348763 107.39282307 306.5625 108.625 C305.79373535 109.08100586 305.0249707 109.53701172 304.23291016 110.00683594 C273.10583015 127.99024928 236.31689497 133.81467344 201 137 C199.97704834 137.09571289 198.95409668 137.19142578 197.90014648 137.29003906 C184.48307836 138.36889547 171.01384914 138.2428734 157.5625 138.25 C156.2466391 138.25100708 154.9307782 138.25201416 153.57504272 138.25305176 C133.86290619 138.25158854 114.53801828 137.75216772 95 135 C93.94103516 134.86078125 92.88207031 134.7215625 91.79101562 134.578125 C61.05025133 130.46156884 21.57977443 121.89190974 1.3926239 95.93305969 C-0.54197014 91.85853549 -0.39699671 88.3501946 -0.34057617 83.89526367 C-0.34101425 82.98745148 -0.34145233 82.07963928 -0.34190369 81.14431763 C-0.33981829 78.15198046 -0.31649879 75.16020771 -0.29296875 72.16796875 C-0.28737192 70.09003506 -0.28310223 68.0120974 -0.28010559 65.93415833 C-0.26866375 60.47113065 -0.23920206 55.00834311 -0.20599365 49.54541016 C-0.17527865 43.96845752 -0.16159718 38.391466 -0.14648438 32.81445312 C-0.11433189 21.87619671 -0.06314335 10.93811834 0 0 Z " fill="#08457E" transform="translate(111,394)"/>
<path d="M0 0 C0.47173141 0.40928741 0.94346283 0.81857483 1.42948914 1.24026489 C2.05305801 1.77859955 2.67662689 2.3169342 3.3190918 2.87158203 C4.24325142 3.67113815 4.24325142 3.67113815 5.18608093 4.48684692 C44.24646155 37.07062431 107.89234154 38.24161237 156.125 38.1875 C157.1279007 38.18689575 158.13080139 38.1862915 159.16409302 38.18566895 C212.29463745 38.09934201 276.97147662 36.16370269 321.18920898 2.86938477 C322.26198341 2.06235863 322.26198341 2.06235863 323.35643005 1.23902893 C323.89880814 0.83014938 324.44118622 0.42126984 325 0 C325.16241155 11.85693763 325.28668178 23.71360931 325.3626852 35.57143402 C325.39916921 41.07797115 325.4486318 46.58374556 325.52807617 52.08984375 C325.60430754 57.40671754 325.64602663 62.72285919 325.6641407 68.04023743 C325.67704404 70.06565371 325.70224227 72.09103129 325.7401104 74.11613464 C326.06095603 91.9901329 326.06095603 91.9901329 321.62890625 97.15234375 C319.77539062 98.74389648 319.77539062 98.74389648 318 100 C317.09378906 100.8146875 316.18757813 101.629375 315.25390625 102.46875 C307.31275834 108.46206918 299.04909168 112.91825372 290 117 C288.81792969 117.53496094 287.63585937 118.06992187 286.41796875 118.62109375 C262.34169523 128.84090114 235.85290201 133.18391813 210 136 C208.61530518 136.15879639 208.61530518 136.15879639 207.20263672 136.32080078 C190.31930618 138.17840873 173.40219104 138.20928853 156.4375 138.25 C154.77119537 138.25790054 154.77119537 138.25790054 153.07122803 138.26596069 C132.11194312 138.3426773 111.11510171 137.45855534 90.375 134.25 C89.27220703 134.08153564 88.16941406 133.91307129 87.03320312 133.73950195 C57.87850373 129.06166461 19.9400706 120.52600018 1.29735947 95.27729797 C-0.89100956 91.43598146 -0.79229845 87.88712838 -0.68115234 83.5546875 C-0.6820285 82.64643723 -0.68290466 81.73818695 -0.68380737 80.80241394 C-0.67965548 77.82570821 -0.63311803 74.85130782 -0.5859375 71.875 C-0.57473681 69.80136343 -0.56620075 67.7277109 -0.56021118 65.65405273 C-0.53738174 60.21538904 -0.47850879 54.77769787 -0.4119873 49.3394165 C-0.35043792 43.78240105 -0.32316914 38.22522735 -0.29296875 32.66796875 C-0.22876021 21.77822025 -0.12645179 10.88919122 0 0 Z " fill="#08457E" transform="translate(111,289)"/>
<path d="M0 0 C0.95843811 0.00060425 1.91687622 0.0012085 2.90435791 0.00183105 C119.94933612 0.20082523 119.94933612 0.20082523 155.93359375 34.25390625 C159.48214647 38.03139786 160.88916234 41.40230898 161.3125 46.5 C161.01618252 53.29250841 157.36552331 57.75188041 152.53515625 62.25 C100.48798711 103.3103245 1.9060115 97.09588417 -60.11669922 89.921875 C-137.261546 80.29938185 -137.261546 80.29938185 -156.61328125 56.51171875 C-159.67628263 51.93300535 -160.15471332 47.48384256 -159.25 42.1875 C-154.46042643 30.61269722 -142.34010752 24.20068511 -131.296875 19.58154297 C-90.18566542 3.13166868 -43.87262253 -0.05158226 0 0 Z " fill="#08457E" transform="translate(272.25,224.8125)"/>
<path d="M0 0 C1.44669398 -0.0083016 1.44669398 -0.0083016 2.9226141 -0.0167709 C6.15708557 -0.03039324 9.39078753 -0.01539918 12.62524414 -0.00050354 C14.94296599 -0.00428613 17.26068557 -0.00978566 19.57839966 -0.01687622 C25.87585497 -0.03085584 32.17303783 -0.01964325 38.47047806 -0.00316501 C45.05584181 0.01066904 51.64118947 0.00422729 58.2265625 0.0007019 C69.28625725 -0.00273204 80.34584951 0.01139928 91.40551758 0.03465271 C102.78381373 0.05857337 114.16196642 0.06565693 125.5402832 0.05516052 C139.25297423 0.04253333 152.96556426 0.04504259 166.67825317 0.06081963 C171.91579742 0.06658338 177.15329366 0.06649367 182.39083862 0.06175423 C188.55666744 0.05698757 194.72229727 0.06707346 200.88808823 0.08870888 C203.15324101 0.09428113 205.41841289 0.09473805 207.68356705 0.08975601 C210.77120032 0.08381585 213.85822262 0.09628442 216.94580078 0.11352539 C217.84608977 0.10751535 218.74637877 0.1015053 219.67394924 0.09531313 C224.44058911 0.14384442 227.59464524 0.41858065 231.47290039 3.50120544 C235.08434036 7.6285654 235.59982347 11.04290024 235.6340332 16.42210388 C235.64364075 17.64057007 235.65324829 18.85903625 235.66314697 20.11442566 C235.66952179 22.09252228 235.66952179 22.09252228 235.67602539 24.11058044 C235.68178078 25.47957866 235.68753846 26.84857687 235.69329834 28.21757507 C235.70380077 31.08914057 235.7096479 33.96067814 235.71313477 36.83226013 C235.7186079 40.49844812 235.74261332 44.16426255 235.77110672 47.83033371 C235.78980383 50.65976511 235.79494251 53.48910795 235.79647064 56.31859589 C235.80094195 58.32317412 235.81955664 60.32770482 235.83843994 62.3321991 C235.82046286 69.70654364 235.72706243 75.4335029 230.97290039 81.37620544 C228.26132318 83.40988835 225.69983045 83.62785062 222.43761063 83.64101315 C221.61387302 83.64670439 220.79013541 83.65239563 219.94143605 83.65825933 C218.5843104 83.66002915 218.5843104 83.66002915 217.19976807 83.66183472 C216.2384254 83.66692254 215.27708272 83.67201036 214.28660846 83.67725235 C211.05085567 83.69300465 207.81512526 83.7015092 204.5793457 83.70994568 C202.26516578 83.71948178 199.9509873 83.72937284 197.6368103 83.73959351 C190.02489926 83.77100277 182.4129772 83.79124607 174.80102539 83.80979919 C172.85974967 83.81474518 172.85974967 83.81474518 170.87925625 83.81979108 C158.67866505 83.85056959 146.47807309 83.87744403 134.27745438 83.89420986 C131.45197796 83.89815931 128.62650163 83.90216232 125.80102539 83.90623474 C125.09877298 83.9072431 124.39652057 83.90825146 123.67298779 83.90929038 C112.29671301 83.92629766 100.92065573 83.96740839 89.54448715 84.01825773 C77.86341669 84.07004028 66.18246984 84.09867039 54.50128627 84.10640675 C47.94320946 84.11136846 41.38551935 84.12649987 34.8275528 84.16615105 C28.658367 84.20296007 22.4897897 84.21144544 16.32051468 84.19814491 C14.05617211 84.19819895 11.79180297 84.20853255 9.52756119 84.22989655 C6.43562584 84.25751088 3.34592005 84.24809845 0.25396729 84.22946167 C-0.64186026 84.2462566 -1.53768781 84.26305153 -2.46066165 84.28035539 C-8.11949219 84.19513062 -11.10171288 82.9629173 -15.24205899 79.08107144 C-17.93424942 75.77121489 -17.66365532 72.35127284 -17.68823242 68.2731781 C-17.69783997 66.98819427 -17.70744751 65.70321045 -17.71734619 64.37928772 C-17.72219409 62.97461627 -17.72647294 61.56994275 -17.73022461 60.16526794 C-17.73597839 58.72421772 -17.74173609 57.28316751 -17.74749756 55.84211731 C-17.75799889 52.82092432 -17.76384728 49.79975787 -17.76733398 46.77854919 C-17.77281798 42.91263476 -17.79684727 39.04707266 -17.82530594 35.18126869 C-17.84395527 32.20437096 -17.84913912 29.22755774 -17.85066986 26.25060654 C-17.85369158 24.82568307 -17.86170393 23.40076091 -17.87485504 21.97589493 C-17.89196211 19.98000845 -17.88818374 17.98397625 -17.88354492 15.98802185 C-17.88719055 14.85345551 -17.89083618 13.71888916 -17.89459229 12.54994202 C-17.34941202 8.02710081 -15.60792908 5.63497388 -12.51065445 2.38599491 C-8.30952483 -0.26796833 -4.87493987 -0.05200978 0 0 Z " fill="#00DFC2" transform="translate(860.527099609375,319.49879455566406)"/>
<path d="M0 0 C1.27440445 -0.00571014 2.5488089 -0.01142029 3.86183167 -0.01730347 C5.27708425 -0.01854882 6.69233695 -0.01967391 8.10758972 -0.02069092 C9.59581627 -0.02531949 11.08404164 -0.0303442 12.57226562 -0.03573608 C16.61781591 -0.04885853 20.66334961 -0.05530476 24.70891786 -0.05974674 C27.23653719 -0.06267777 29.76415198 -0.06678265 32.29176903 -0.07125092 C40.2004306 -0.08492556 48.1090818 -0.09459233 56.01775438 -0.09845281 C65.14652132 -0.10293335 74.27513851 -0.12048117 83.40385991 -0.1494534 C90.46043448 -0.17107159 97.51696692 -0.18115716 104.57357424 -0.18249393 C108.78798757 -0.18354188 113.00226011 -0.18944748 117.21663857 -0.20731354 C121.18193989 -0.22379659 125.14699466 -0.22594867 129.11231804 -0.21717453 C130.5659463 -0.21640427 132.01958784 -0.22074545 133.47318268 -0.23063278 C135.46116669 -0.24335965 137.44924984 -0.23568109 139.43725586 -0.22705078 C141.10446544 -0.22925062 141.10446544 -0.22925062 142.80535603 -0.2314949 C147.27603305 0.30424757 150.68307478 1.78758273 153.72160339 5.14044189 C155.92950776 8.85901766 156.04373199 11.91660712 156.07023621 16.15313721 C156.07984375 17.39162415 156.08945129 18.63011108 156.09934998 19.90612793 C156.104199 21.26027237 156.10847757 22.61441896 156.11222839 23.96856689 C156.11798363 25.35998536 156.12374131 26.75140382 156.12950134 28.14282227 C156.14000416 31.06146615 156.14585105 33.98008256 156.14933777 36.89874268 C156.15481123 40.62546215 156.17881725 44.35181418 156.20730972 48.07841873 C156.22600454 50.95417311 156.23114539 53.82984034 156.23267365 56.70565033 C156.23568693 58.07868196 156.24367043 59.45171255 156.25685883 60.82468414 C156.38444764 75.13231138 156.38444764 75.13231138 152.90910339 80.14044189 C145.71347268 84.93954144 138.85974673 84.70469222 130.43424988 84.64215088 C128.97646057 84.64593902 127.51867487 84.65144314 126.06089783 84.65852356 C122.12079004 84.67242982 118.18112128 84.66134328 114.24103808 84.64481235 C110.10834116 84.63091259 105.97566844 84.63742742 101.84295654 84.64094543 C94.90537989 84.64364337 87.96797666 84.63020685 81.03044128 84.60699463 C73.01986573 84.58037698 65.00957985 84.57864266 56.99897522 84.59038299 C49.27823091 84.6011766 41.55759097 84.59496198 33.83685493 84.58082771 C30.55750614 84.57508268 27.27823408 84.57513886 23.9988842 84.57989311 C20.13523932 84.58467919 16.27191009 84.57449416 12.4083252 84.55293846 C10.99383165 84.54739294 9.57930764 84.5468847 8.16481209 84.55189133 C-5.25100432 84.59340834 -5.25100432 84.59340834 -11.09089661 81.14044189 C-15.70078715 76.40923845 -16.21260858 72.69280843 -16.23616028 66.27374268 C-16.24254013 65.09216583 -16.24891998 63.91058899 -16.25549316 62.69320679 C-16.25660599 61.4202475 -16.25771881 60.14728821 -16.25886536 58.83575439 C-16.26219376 57.52388153 -16.26552216 56.21200867 -16.26895142 54.86038208 C-16.27493253 52.08474912 -16.27679238 49.30914725 -16.27619934 46.5335083 C-16.27609781 42.98727857 -16.28974554 39.44124945 -16.30697155 35.89506721 C-16.32080439 32.50029339 -16.32018132 29.10555602 -16.32136536 25.71075439 C-16.32855087 24.44184357 -16.33573639 23.17293274 -16.34313965 21.86557007 C-16.34006302 20.6776889 -16.33698639 19.48980774 -16.33381653 18.26593018 C-16.33595406 16.70517258 -16.33595406 16.70517258 -16.33813477 15.11288452 C-15.81569132 8.83176203 -13.87409857 5.22366309 -9.09089661 1.14044189 C-5.82629944 0.05224284 -3.4364207 0.00920635 0 0 Z " fill="#10C7E7" transform="translate(1014.0908966064453,165.85955810546875)"/>
<path d="M0 0 C1.85735275 -0.01029488 1.85735275 -0.01029488 3.75222778 -0.02079773 C7.13252773 -0.03591837 10.51227416 -0.03757241 13.89256668 -0.03185534 C16.7205805 -0.02875544 19.54854487 -0.03486469 22.37655163 -0.04089409 C29.05023028 -0.05491769 35.72378085 -0.05339562 42.39746094 -0.04199219 C49.27029733 -0.03050761 56.14274366 -0.04459694 63.01552868 -0.07138866 C68.92913393 -0.09357363 74.84261698 -0.10017694 80.75626087 -0.09431225 C84.28266054 -0.09094877 87.8088101 -0.09331707 91.33517456 -0.11056328 C95.26787513 -0.1289594 99.20009878 -0.11481647 103.1328125 -0.09765625 C104.29354279 -0.10732422 105.45427307 -0.11699219 106.650177 -0.12695312 C113.13218359 -0.06773914 117.4358086 0.27256269 122.56640625 4.40405273 C125.37126998 8.57665272 125.94385823 11.89421543 125.95458984 16.86499023 C125.96404633 18.12649902 125.97350281 19.38800781 125.98324585 20.68774414 C125.97787563 22.05151689 125.97172255 23.41528676 125.96484375 24.77905273 C125.96686713 26.19100088 125.96978078 27.60294799 125.97354126 29.01489258 C125.97795221 31.96697996 125.97157358 34.91879411 125.95751953 37.87084961 C125.94042799 41.64360303 125.95027583 45.41571608 125.96823692 49.18844604 C125.97910827 52.10193657 125.97561317 55.01527677 125.96785355 57.92877197 C125.96586078 59.31935707 125.96827821 60.70995607 125.97529221 62.1005249 C125.98296111 64.04805214 125.96918854 65.99562761 125.95458984 67.94311523 C125.95220306 69.04864746 125.94981628 70.15417969 125.94735718 71.29321289 C125.33924957 76.25901094 123.73874317 79.25939144 120.16711426 82.7467041 C114.79675897 85.21859324 109.80082421 84.96127457 103.95507812 84.92163086 C102.68612198 84.92864014 101.41716583 84.93564941 100.10975647 84.94287109 C96.64065476 84.96105585 93.17203062 84.95405743 89.70292091 84.94135475 C86.06621676 84.93120171 82.4295525 84.94062681 78.79284668 84.94689941 C72.68653042 84.95416916 66.58040791 84.94460595 60.47412109 84.92553711 C53.42234314 84.90376946 46.37102783 84.91082133 39.31926107 84.93284273 C33.25621132 84.95101608 27.19330054 84.95354567 21.13023233 84.94308805 C17.51276476 84.93686368 13.89551439 84.93598815 10.27806091 84.94923401 C6.24434167 84.96297335 2.21141541 84.94391153 -1.82226562 84.92163086 C-3.61318886 84.93377625 -3.61318886 84.93377625 -5.44029236 84.94616699 C-15.89123178 84.83918214 -15.89123178 84.83918214 -20.43359375 80.40405273 C-23.16486836 76.19999645 -23.81330944 72.92512529 -23.83764648 67.95898438 C-23.85033066 66.70070328 -23.86301483 65.44242218 -23.87608337 64.14601135 C-23.87403165 62.78540888 -23.87104339 61.42480754 -23.8671875 60.06420898 C-23.87175406 58.65465545 -23.87706104 57.24510414 -23.8830719 55.83555603 C-23.89198416 52.88767426 -23.88960176 49.94006367 -23.87963867 46.9921875 C-23.86815277 43.22836793 -23.88836291 39.46548712 -23.91755581 35.70179081 C-23.93596821 32.79253772 -23.93561542 29.88350752 -23.92991829 26.97421074 C-23.92976568 25.58723064 -23.93575992 24.20023485 -23.94820976 22.81331062 C-24.05667356 8.75035351 -24.05667356 8.75035351 -19.43359375 3.40405273 C-13.12144385 -0.21781165 -7.14988558 -0.02772933 0 0 Z " fill="#00DFC2" transform="translate(1044.43359375,469.595947265625)"/>
<path d="M0 0 C1.09204239 -0.00845947 2.18408478 -0.01691895 3.30921936 -0.02563477 C4.49741272 -0.01956207 5.68560608 -0.01348938 6.9098053 -0.00723267 C8.16886185 -0.01248962 9.4279184 -0.01774658 10.72512817 -0.02316284 C14.17149449 -0.03681811 17.61759082 -0.03154499 21.06396174 -0.02202559 C24.67530835 -0.01441799 28.2866322 -0.0214778 31.89797974 -0.02618408 C37.96316161 -0.03163914 44.02823383 -0.02445736 50.09339905 -0.01016235 C57.09794058 0.0061564 64.10222003 0.00088042 71.1067552 -0.01564157 C77.12730488 -0.02927239 83.14777584 -0.0311681 89.16833597 -0.02332556 C92.7611928 -0.01865684 96.3539266 -0.01800188 99.94677544 -0.02793503 C103.95414015 -0.03824054 107.96105595 -0.02394133 111.96839905 -0.00723267 C113.15456818 -0.01330536 114.3407373 -0.01937805 115.56285095 -0.02563477 C125.73699464 0.05297594 125.73699464 0.05297594 130.50379944 3.38095093 C135.83490117 9.71635842 135.08860111 16.92192592 135.03504944 24.85360718 C135.03774813 26.26412727 135.04163368 27.67464554 135.04664612 29.0851593 C135.05252167 32.03135003 135.04404071 34.97705347 135.02528381 37.92318726 C135.00247335 41.6882373 135.0156414 45.45214792 135.03957367 49.21715641 C135.05406702 52.12639363 135.04941007 55.03536316 135.0390625 57.94460869 C135.03640602 59.33240331 135.03962684 60.72022272 135.04898071 62.10798836 C135.11916579 75.44313969 135.11916579 75.44313969 130.50379944 80.38095093 C129.94692444 80.97907593 129.39004944 81.57720093 128.81629944 82.19345093 C122.17816022 85.60222512 112.78475434 84.53458499 105.48573303 84.54208374 C104.3154808 84.54704865 103.14522858 84.55201355 101.93951416 84.55712891 C98.09374899 84.57165675 94.24802497 84.57853448 90.40223694 84.58407593 C88.39772716 84.58837617 86.39321738 84.59267697 84.38870776 84.59705043 C78.81225172 84.60882286 73.23580555 84.61638602 67.65933836 84.61984563 C60.46743177 84.62433372 53.27571454 84.64193273 46.08386552 84.67084622 C40.5056976 84.69248836 34.92758291 84.70255106 29.34937346 84.70388675 C26.02534057 84.70493185 22.70152677 84.71223789 19.37752914 84.72870636 C15.67256506 84.74576231 11.96806421 84.74388811 8.26307678 84.73739624 C7.17094376 84.74661102 6.07881073 84.75582581 4.95358276 84.76531982 C-0.97721026 84.73276976 -5.27746739 84.28293016 -10.49620056 81.38095093 C-14.29973383 77.32384878 -14.62612869 73.57212145 -14.67320251 68.16879272 C-14.68603775 66.88703659 -14.69887299 65.60528046 -14.71209717 64.28468323 C-14.72026501 62.88318265 -14.72770866 61.48167769 -14.73448181 60.08016968 C-14.73855734 59.37329325 -14.74263287 58.66641682 -14.74683189 57.93811989 C-14.76767458 54.19649169 -14.78198395 50.45489997 -14.79136658 46.71322632 C-14.80242645 42.85627217 -14.83682578 38.99989566 -14.87653828 35.14314556 C-14.90273062 32.17049617 -14.91106069 29.19798389 -14.91464806 26.22522926 C-14.91950743 24.80390332 -14.93110306 23.38258323 -14.94968605 21.96137047 C-14.97412802 19.9681535 -14.97068773 17.97465443 -14.96617126 15.98129272 C-14.97497063 14.28277412 -14.97497063 14.28277412 -14.98394775 12.54994202 C-14.370985 8.56740035 -13.04607743 6.48014531 -10.49620056 3.38095093 C-6.89007779 0.79361586 -4.41614796 0.00527866 0 0 Z " fill="#00DFC2" transform="translate(857.4962005615234,165.61904907226563)"/>
<path d="M0 0 C1.31624863 -0.00788544 1.31624863 -0.00788544 2.65908813 -0.01593018 C5.53650128 -0.02904772 8.4133535 -0.02042222 11.29077148 -0.01025391 C13.30281174 -0.01227683 15.31485128 -0.01519009 17.32688904 -0.01895142 C21.53391534 -0.02336345 25.74074996 -0.01697914 29.94775391 -0.00292969 C35.33004522 0.01417246 40.71188802 0.00430725 46.09416294 -0.01364708 C50.24553282 -0.02450578 54.39679697 -0.02102917 58.54817009 -0.0132637 C60.53242992 -0.01126804 62.51669948 -0.01369861 64.50094795 -0.02070236 C67.27693113 -0.0283524 70.05219515 -0.01666343 72.828125 0 C73.64130692 -0.00607269 74.45448883 -0.01214539 75.29231262 -0.0184021 C80.42491811 0.03844788 84.30863745 0.75063026 88.84936523 3.38818359 C92.46613431 7.55693078 93.35172517 10.57612842 93.36694336 16.03271484 C93.379552 17.33426514 93.39216064 18.63581543 93.40515137 19.97680664 C93.39799111 21.38477117 93.38978701 22.79273073 93.38061523 24.20068359 C93.38331288 25.65747333 93.38719757 27.11426131 93.39221191 28.57104492 C93.39809428 31.61736268 93.38958553 34.66320981 93.37084961 37.70947266 C93.34805994 41.60345423 93.36118993 45.49633289 93.38513947 49.39027405 C93.39963215 52.39644599 93.39497577 55.40235883 93.3846283 58.40853882 C93.38197055 59.84378186 93.38519714 61.27904886 93.39454651 62.71426392 C93.40476738 64.72405513 93.38641236 66.73392944 93.36694336 68.74365234 C93.36376099 69.88471436 93.36057861 71.02577637 93.3572998 72.20141602 C92.579243 77.08292306 90.40258877 80.06678496 86.67393494 83.23892212 C82.63777954 84.88115382 78.97533884 84.80683294 74.65625 84.77636719 C73.73856842 84.78162415 72.82088684 84.7868811 71.87539673 84.79229736 C68.84701429 84.8054826 65.81915912 84.79676365 62.79077148 84.78662109 C60.68236694 84.78864242 58.57396307 84.79155435 56.46556091 84.7953186 C52.04809916 84.79974011 47.63081948 84.79331701 43.21337891 84.77929688 C37.55626438 84.76221572 31.89957718 84.77204067 26.24247837 84.79001427 C21.8886952 84.80086566 17.53501298 84.79739933 13.18122673 84.78963089 C11.09566128 84.78763209 9.01008662 84.79007688 6.92453194 84.79706955 C4.00673349 84.80470502 1.08962239 84.79304971 -1.828125 84.77636719 C-2.68701828 84.78243988 -3.54591156 84.78851257 -4.43083191 84.79476929 C-9.41457528 84.74209364 -12.82106531 84.12683918 -17.15063477 81.38818359 C-20.86904393 77.28511141 -21.27967558 73.68762412 -21.32763672 68.28369141 C-21.34047195 67.02518372 -21.35330719 65.76667603 -21.36653137 64.47003174 C-21.37470016 63.09379471 -21.38214363 61.71755321 -21.38891602 60.34130859 C-21.39299154 59.64671288 -21.39706707 58.95211716 -21.4012661 58.23647308 C-21.42211104 54.55853068 -21.43641839 50.88062538 -21.44580078 47.20263672 C-21.45685003 43.41527784 -21.49123635 39.62850894 -21.53097248 35.84135818 C-21.55719675 32.91928054 -21.5654978 29.99734212 -21.56908226 27.07515717 C-21.57393485 25.67977676 -21.58551093 24.28440202 -21.60412025 22.88913727 C-21.78297575 8.58796463 -21.78297575 8.58796463 -17.15063477 3.38818359 C-11.25862006 0.67583021 -6.43154045 -0.04814942 0 0 Z " fill="#10C7E7" transform="translate(920.150634765625,469.61181640625)"/>
<path d="M0 0 C1.50692665 -0.01429802 1.50692665 -0.01429802 3.04429626 -0.02888489 C4.12352859 -0.02797348 5.20276093 -0.02706207 6.31469727 -0.02612305 C7.4291774 -0.03040817 8.54365753 -0.0346933 9.69190979 -0.03910828 C12.04801759 -0.04484932 14.40414311 -0.0453535 16.76025391 -0.04101562 C20.36399592 -0.03785679 23.96691618 -0.06131471 27.57055664 -0.08666992 C29.86026915 -0.08894304 32.14998386 -0.08964635 34.43969727 -0.08862305 C36.05550941 -0.10243767 36.05550941 -0.10243767 37.70396423 -0.11653137 C47.01055627 -0.0590095 47.01055627 -0.0590095 50.94360352 3.2746582 C54.58527328 7.43656651 55.0709052 10.8805876 55.10473633 16.30322266 C55.11434387 17.54493729 55.12395142 18.78665192 55.1338501 20.06599426 C55.13869858 21.42330745 55.14297728 22.78062278 55.14672852 24.13793945 C55.15248315 25.53175355 55.15824084 26.92556764 55.16400146 28.31938171 C55.17450314 31.24222176 55.18035104 34.16503437 55.18383789 37.08789062 C55.18931647 40.82367592 55.21333397 44.55909561 55.24180984 48.29476643 C55.26048337 51.1747695 55.26564435 54.0546854 55.26717377 56.93474388 C55.27019095 58.31139306 55.27818784 59.68804104 55.29135895 61.06463051 C55.3085138 62.9956497 55.3046808 64.92682032 55.30004883 66.85791016 C55.30551727 68.50313408 55.30551727 68.50313408 55.31109619 70.18159485 C54.74066546 74.98272015 52.78440968 79.23401999 48.94360352 82.2746582 C46.01563596 83.25064739 44.06938567 83.41755834 41.01660156 83.45166016 C39.51440315 83.47091301 39.51440315 83.47091301 37.9818573 83.49055481 C36.90060074 83.49794174 35.81934418 83.50532867 34.70532227 83.51293945 C33.03503716 83.52504707 33.03503716 83.52504707 31.33100891 83.53739929 C28.97312984 83.55123548 26.61523077 83.56195972 24.25732422 83.56982422 C20.65561917 83.58704101 17.05483104 83.6309332 13.45336914 83.67504883 C11.16236026 83.68517553 8.87134359 83.6936917 6.58032227 83.70043945 C5.5051384 83.71794754 4.42995453 83.73545563 3.32218933 83.75349426 C-2.76068711 83.73589066 -6.51195815 83.48870972 -11.05639648 79.2746582 C-13.31452288 75.8184616 -13.32023386 72.83794519 -13.34692383 68.76538086 C-13.35364105 68.12094528 -13.36035828 67.4765097 -13.36727905 66.81254578 C-13.38623467 64.68785839 -13.39018198 62.56348732 -13.39233398 60.4387207 C-13.39876377 58.95665356 -13.40549227 57.47458769 -13.4125061 55.99252319 C-13.42447285 52.88731952 -13.42818757 49.78222705 -13.42700195 46.67700195 C-13.42679883 42.70682047 -13.45409606 38.73735534 -13.48854637 34.76734352 C-13.51083422 31.70631668 -13.51483893 28.6454617 -13.5137825 25.58436203 C-13.51613582 24.12118436 -13.52494424 22.65800176 -13.54044724 21.19490433 C-13.56014666 19.14367429 -13.55425594 17.09398185 -13.54223633 15.04272461 C-13.54508636 13.8778653 -13.5479364 12.71300598 -13.5508728 11.5128479 C-12.94070987 7.5170583 -11.60915688 5.38217271 -9.05639648 2.2746582 C-6.07691496 0.18277985 -3.5925648 0.01876586 0 0 Z " fill="#10C7E7" transform="translate(1115.056396484375,319.725341796875)"/>
<path d="M0 0 C1.19302734 -0.01160156 2.38605469 -0.02320313 3.61523438 -0.03515625 C15.31198299 0.00385458 15.31198299 0.00385458 20.4375 3.375 C25.61636302 9.91235932 25.0056695 16.818347 24.93359375 24.84765625 C24.93374895 26.25817438 24.9352414 27.66869294 24.93800354 29.07920837 C24.93938306 32.0254111 24.92690409 34.97112434 24.90405273 37.91723633 C24.87564257 41.68214287 24.87841819 45.44623869 24.89114285 49.21120548 C24.8981168 52.12042596 24.89029176 55.02946098 24.87788582 57.93865776 C24.87338978 59.32644374 24.87301828 60.71424974 24.87695122 62.10203743 C24.87988067 64.04470246 24.86113491 65.9873631 24.84155273 67.92993164 C24.83614975 69.03244766 24.83074677 70.13496368 24.82518005 71.27088928 C24.26771877 75.73441926 22.78816676 79.15095825 19.4375 82.1875 C14.00131552 85.41523453 7.8487259 84.59797383 1.72338867 84.61523438 C-0.35734373 84.62491783 -2.43707832 84.65594366 -4.51757812 84.6875 C-5.85155667 84.69403307 -7.18554224 84.69928235 -8.51953125 84.703125 C-9.72585205 84.7124707 -10.93217285 84.72181641 -12.17504883 84.73144531 C-16.80440078 84.24432071 -20.2278681 82.84769727 -23.375 79.375 C-25.59709649 75.63252171 -25.70165067 72.53533147 -25.73950195 68.27050781 C-25.75233719 67.01200012 -25.76517242 65.75349243 -25.77839661 64.45684814 C-25.7865654 63.08061111 -25.79400886 61.70436961 -25.80078125 60.328125 C-25.80485678 59.63352928 -25.8089323 58.93893356 -25.81313133 58.22328949 C-25.83397628 54.54534708 -25.84828363 50.86744179 -25.85766602 47.18945312 C-25.86871527 43.40209424 -25.90310159 39.61532534 -25.94283772 35.82817459 C-25.96906199 32.90609695 -25.97736303 29.98415853 -25.98094749 27.06197357 C-25.98580009 25.66659317 -25.99737617 24.27121842 -26.01598549 22.87595367 C-26.18819446 9.10623234 -26.18819446 9.10623234 -21.5625 3.375 C-14.7390542 -0.46367789 -7.67365779 -0.07486495 0 0 Z " fill="#10C7E7" transform="translate(868.5625,469.625)"/>
<path d="M0 0 C2.68248803 2.29927546 3.68997627 4.70831658 5.1875 7.875 C5.81181412 7.87646656 6.43612823 7.87793312 7.07936096 7.87944412 C22.34014882 7.91665643 37.60068411 7.97585994 52.86128235 8.05890274 C60.24150916 8.09854474 67.62163164 8.13101194 75.00195312 8.14599609 C81.44208837 8.15909026 87.8819926 8.18624983 94.32199764 8.22961307 C97.72524082 8.25205551 101.12820094 8.26792121 104.53152466 8.26688385 C137.48343499 8.28750705 157.16647749 15.7001632 180.68066406 39.17700195 C184.76439406 43.30306655 188.67590888 47.52141977 192.46948242 51.91455078 C206.49367561 67.91771567 223.11393662 83.21409413 245.38154793 85.05653763 C247.62470868 85.11797471 249.85986451 85.12295609 252.10375977 85.10205078 C252.94388107 85.10234283 253.78400238 85.10263489 254.64958191 85.10293579 C257.39279962 85.10155601 260.13573671 85.08605934 262.87890625 85.0703125 C264.79418286 85.06657755 266.70946139 85.06373286 268.6247406 85.06173706 C273.64048636 85.05413855 278.65611439 85.0345229 283.67181396 85.0123291 C288.80007332 84.99178881 293.9283519 84.98271791 299.05664062 84.97265625 C309.10031185 84.95127315 319.14389609 84.91718334 329.1875 84.875 C328.10480835 84.27026855 328.10480835 84.27026855 327.00024414 83.65332031 C323.74247335 81.82386174 320.49627629 79.97477191 317.25 78.125 C316.11369141 77.49078125 314.97738281 76.8565625 313.80664062 76.203125 C312.72705078 75.584375 311.64746094 74.965625 310.53515625 74.328125 C309.03480835 73.47976074 309.03480835 73.47976074 307.50415039 72.61425781 C305.1875 70.875 305.1875 70.875 304.35327148 68.65917969 C304.29856689 68.07040039 304.2438623 67.48162109 304.1875 66.875 C308.24953717 67.46480614 311.12295782 68.7750974 314.64453125 70.859375 C315.67513672 71.46523438 316.70574219 72.07109375 317.76757812 72.6953125 C319.36762695 73.65050781 319.36762695 73.65050781 321 74.625 C322.05509766 75.24632812 323.11019531 75.86765625 324.19726562 76.5078125 C329.91260459 79.8836015 335.57663559 83.32844638 341.1875 86.875 C339.68239375 91.03274891 337.2527198 92.32145631 333.48046875 94.44140625 C332.33642578 95.09173828 331.19238281 95.74207031 330.01367188 96.41210938 C328.80095375 97.08754939 327.58806148 97.76267683 326.375 98.4375 C325.17326121 99.11553265 323.9720827 99.79455934 322.77148438 100.47460938 C320.55388861 101.72846616 318.33369068 102.9777396 316.11010742 104.22094727 C314.22566508 105.28744939 312.37011355 106.40756379 310.5559082 107.58959961 C308.1875 108.875 308.1875 108.875 304.1875 108.875 C305.66436464 105.03004133 307.6025264 103.70391997 311.125 101.67578125 C312.10210938 101.10666016 313.07921875 100.53753906 314.0859375 99.95117188 C315.10945313 99.36916016 316.13296875 98.78714844 317.1875 98.1875 C318.21101563 97.59388672 319.23453125 97.00027344 320.2890625 96.38867188 C327.47991071 92.22879464 327.47991071 92.22879464 330.1875 90.875 C328.62467285 90.86953156 328.62467285 90.86953156 327.03027344 90.86395264 C317.14582669 90.82679199 307.26168543 90.76879274 297.37747192 90.69109726 C292.29753446 90.65181671 287.21776531 90.61953394 282.13769531 90.60400391 C277.2226359 90.58870816 272.30803985 90.55403814 267.39318848 90.50669098 C265.5308437 90.49200902 263.66843273 90.48396669 261.80603027 90.48311615 C240.55561996 90.46367569 221.71484066 86.24870476 205.1875 71.875 C204.15590757 70.72770028 203.14214186 69.56427042 202.140625 68.390625 C199.00538204 64.71970169 195.68540371 61.3039275 192.25390625 57.9140625 C191.72717819 57.39292877 191.20045013 56.87179504 190.65776062 56.33486938 C188.46145538 54.16594671 186.26120618 52.00110737 184.05688477 49.84033203 C182.43075081 48.24421101 180.81074105 46.64207677 179.19140625 45.0390625 C178.43688927 44.30473495 178.43688927 44.30473495 177.66712952 43.55557251 C176.46888007 42.36616463 175.32266637 41.12475604 174.1875 39.875 C174.1875 39.215 174.1875 38.555 174.1875 37.875 C173.5275 37.875 172.8675 37.875 172.1875 37.875 C171.383125 36.885 170.57875 35.895 169.75 34.875 C159.50462671 22.62509715 142.87265412 15.05175861 127.10635185 13.58917236 C123.86711311 13.47524346 120.63941707 13.44660457 117.39819336 13.45507812 C116.1820636 13.44660858 114.96593384 13.43813904 113.71295166 13.42941284 C110.41800941 13.41019307 107.12341864 13.40425254 103.82843089 13.40616035 C101.06937505 13.40628094 98.31037093 13.3976833 95.55132967 13.38938284 C89.04793705 13.37024761 82.5446728 13.3672325 76.04125977 13.37402344 C69.33687476 13.38069448 62.63303566 13.35765559 55.92876142 13.32070971 C50.15608905 13.29005501 44.38359302 13.2786469 38.61084086 13.28254652 C35.16952469 13.28461423 31.72863614 13.27912862 28.28739738 13.25465393 C24.46212909 13.22833481 20.63758658 13.24208191 16.81225586 13.25976562 C15.67305191 13.24650238 14.53384796 13.23323914 13.36012268 13.21957397 C10.54394804 13.24996818 7.94502036 13.303598 5.1875 13.875 C2.9220258 16.13151094 2.9220258 16.13151094 2.1875 18.875 C-0.05125309 21.65798036 -1.65236461 22.35184482 -5.1875 22.75 C-9.31215462 23.08479339 -11.53784255 22.57177673 -14.8125 19.875 C-18.05728304 17.09375739 -18.71985359 14.85705195 -19.125 10.5625 C-18.75300629 6.1729742 -17.61902364 4.22723657 -14.8125 0.875 C-10.57641609 -2.45335165 -4.74563037 -1.89825215 0 0 Z " fill="#1A4A91" transform="translate(484.8125,421.125)"/>
<path d="M0 0 C4.8098218 -0.51836015 7.42897696 1.11398008 11.47265625 3.61328125 C12.07758408 3.98349899 12.6825119 4.35371674 13.30577087 4.7351532 C15.23123 5.91733766 17.14664899 7.11482218 19.0625 8.3125 C20.35421958 9.10709295 21.64653187 9.90072323 22.93945312 10.69335938 C33.03374806 16.91044129 33.03374806 16.91044129 37 20 C35.66231005 24.01306986 33.16399812 24.96435011 29.6640625 26.94140625 C29.02890717 27.30975082 28.39375183 27.6780954 27.73934937 28.05760193 C25.70602097 29.23443827 23.66580807 30.39869173 21.625 31.5625 C19.5930016 32.73260604 17.56245268 33.905196 15.53207397 35.07810974 C14.26792185 35.80712698 13.00252325 36.53398803 11.73574829 37.25843811 C9.09711639 38.76951978 6.53158222 40.31227852 4 42 C3.01 42 2.02 42 1 42 C1.17944336 40.21582031 1.17944336 40.21582031 2 38 C4.22485352 36.26074219 4.22485352 36.26074219 7.12890625 34.546875 C8.16337891 33.928125 9.19785156 33.309375 10.26367188 32.671875 C11.35228516 32.03765625 12.44089844 31.4034375 13.5625 30.75 C14.65498047 30.1003125 15.74746094 29.450625 16.87304688 28.78125 C19.57562855 27.17622333 22.28455745 25.58313812 25 24 C13.60312938 23.93023938 2.20631025 23.87705697 -9.19073105 23.84456348 C-14.48383928 23.82896185 -19.77680054 23.80782489 -25.06982422 23.77368164 C-30.1856555 23.74089097 -35.30134614 23.72310569 -40.41727448 23.71536827 C-42.36113954 23.70985995 -44.30499761 23.69910431 -46.24880219 23.68280983 C-70.87298892 23.48475271 -87.81707748 29.93077277 -105.5625 47.375 C-108.67342709 50.40709111 -108.67342709 50.40709111 -111 54 C-111.66 54 -112.32 54 -113 54 C-113 54.66 -113 55.32 -113 56 C-113.66 56 -114.32 56 -115 56 C-115 56.66 -115 57.32 -115 58 C-115.66 58 -116.32 58 -117 58 C-117.23162842 58.55397461 -117.46325684 59.10794922 -117.7019043 59.67871094 C-120.31026774 64.34305542 -124.5113809 67.92329574 -128.26342773 71.68896484 C-129.78187952 73.21914305 -131.28059583 74.76691438 -132.77929688 76.31640625 C-146.46888729 90.23587934 -163.97118125 99.86793371 -183.88314819 100.23136902 C-186.07364179 100.23355127 -188.26416368 100.22508924 -190.45458984 100.20776367 C-192.26130661 100.20596603 -192.26130661 100.20596603 -194.10452271 100.20413208 C-196.70280105 100.20099686 -199.30107709 100.1937194 -201.89933395 100.1826992 C-206.0094887 100.16541534 -210.11946976 100.16882214 -214.22964478 100.17634583 C-225.90954217 100.19545621 -237.58920638 100.20205119 -249.26904297 100.15454102 C-255.73628127 100.12840309 -262.20302052 100.12704446 -268.67026293 100.15368825 C-272.08671316 100.1666769 -275.50207924 100.16665058 -278.91843796 100.1358242 C-282.7203629 100.10709748 -286.51987315 100.12118049 -290.32177734 100.14526367 C-291.45117737 100.12630539 -292.58057739 100.10734711 -293.74420166 100.08781433 C-299.14524307 99.95122462 -299.14524307 99.95122462 -303.54411697 102.56490517 C-304.80033456 104.67505444 -304.80033456 104.67505444 -306 108 C-308.93347706 110.40964187 -312.22807433 110.41801672 -315.96875 110.3203125 C-320.06122552 109.67496059 -322.91939906 107.42442851 -325.375 104.1875 C-326.59875016 99.90437443 -326.59895652 96.31770435 -324.75 92.25 C-321.95315195 88.6540525 -320.08653063 87.28169313 -315.625 86.125 C-310.7429818 85.95665454 -307.90344536 87.42473488 -304.1875 90.5 C-303 92 -303 92 -302 95 C-285.8134693 95.09377186 -269.62702779 95.16413909 -253.44029045 95.20724869 C-245.92315421 95.22780435 -238.40618751 95.25578958 -230.88916016 95.30175781 C-224.33123594 95.34184153 -217.77343461 95.36748354 -211.21539128 95.37635398 C-207.74840826 95.38153267 -204.28177658 95.39355469 -200.81490707 95.42292023 C-180.99421864 95.9123585 -180.99421864 95.9123585 -162 91 C-160.92442841 90.54425598 -159.84885681 90.08851196 -158.74069214 89.61895752 C-146.98325684 84.3731987 -137.40786093 75.38659976 -129.14453125 65.66015625 C-124.07416619 59.85544866 -118.69062057 54.3567995 -113.27807617 48.87304688 C-112.05716602 47.63059792 -110.84255087 46.38192963 -109.63452148 45.12695312 C-98.770326 33.84700945 -87.42152775 25.20966028 -72 21 C-71.41962982 20.835 -70.83925964 20.67 -70.24130249 20.5 C-60.91401455 18.23740022 -51.30851917 18.64372679 -41.7734375 18.5859375 C-39.81474004 18.56720295 -37.85605046 18.54762787 -35.89736938 18.5272522 C-30.77159289 18.47616647 -25.64579029 18.43641538 -20.51989746 18.39910889 C-15.27752349 18.35892068 -10.03525587 18.30789629 -4.79296875 18.2578125 C5.4712792 18.16133255 15.73558753 18.07683932 26 18 C24.92516357 17.39526855 24.92516357 17.39526855 23.82861328 16.77832031 C20.58765998 14.94663725 17.35634398 13.09857817 14.125 11.25 C12.43310547 10.29867187 12.43310547 10.29867187 10.70703125 9.328125 C9.63066406 8.709375 8.55429687 8.090625 7.4453125 7.453125 C6.45031738 6.88754883 5.45532227 6.32197266 4.43017578 5.73925781 C1.94697655 3.96205153 1.04427145 2.82440257 0 0 Z " fill="#1A4A91" transform="translate(792,187)"/>
<path d="M0 0 C7.74148236 2.95221121 14.93791106 7.78807775 22 12.0625 C23.03511719 12.67416016 24.07023437 13.28582031 25.13671875 13.91601562 C26.61591797 14.81030273 26.61591797 14.81030273 28.125 15.72265625 C29.45917969 16.52328491 29.45917969 16.52328491 30.8203125 17.34008789 C33.10585097 19.0806094 33.97398801 20.35103014 35 23 C34.14768799 23.49927002 33.29537598 23.99854004 32.41723633 24.51293945 C29.23950979 26.37449151 26.0619859 28.23638923 22.88452148 30.09838867 C21.51218049 30.90251873 20.13978537 31.70655642 18.76733398 32.51049805 C16.78875544 33.66951304 14.81037509 34.8288657 12.83203125 35.98828125 C12.22349808 36.34465164 11.6149649 36.70102203 10.98799133 37.06819153 C8.37256589 38.60134848 5.78935338 40.13942362 3.26049805 41.81323242 C2.51453369 42.20486572 1.76856934 42.59649902 1 43 C0.01 42.67 -0.98 42.34 -2 42 C-0.74996362 37.88607431 1.91497181 36.63422138 5.47265625 34.69335938 C6.53806641 34.13358398 6.53806641 34.13358398 7.625 33.5625 C9.01410832 32.8158217 10.40213038 32.06711904 11.7890625 31.31640625 C12.40475098 30.99099854 13.02043945 30.66559082 13.65478516 30.33032227 C17.17121165 28.33563062 20.57173153 26.1426678 24 24 C-83.25 23.67 -190.5 23.34 -301 23 C-301.66 24.98 -302.32 26.96 -303 29 C-305.25825071 31.68167272 -306.89502079 32.8218948 -310.375 33.3828125 C-314.63690744 33.57307622 -317.26750917 33.42728632 -321 31.25 C-323.97870059 27.89896183 -324.87462312 26.12839194 -325.375 21.625 C-324.93060645 17.32919568 -323.70408706 15.32216411 -321 12 C-316.74842215 9.16561476 -312.99040941 9.362248 -308 10 C-302.98519363 12.71635345 -302.91535147 14.25394558 -301 20 C-193.75 19.67 -86.5 19.34 24 19 C15.75 14.05 7.5 9.1 -1 4 C-1.33 3.01 -1.66 2.02 -2 1 C-1.34 0.67 -0.68 0.34 0 0 Z " fill="#1A4A91" transform="translate(791,337)"/>
<path d="M0 0 C5.56728351 2.73303009 8.98825518 6.4200507 11.25 12.1875 C12.95059548 20.83219367 12.51023122 28.24460242 8 36 C5.11779395 39.20571898 1.94124786 41.86750213 -2.4609375 42.16796875 C-3.42257812 42.17441406 -4.38421875 42.18085938 -5.375 42.1875 C-6.33148438 42.20167969 -7.28796875 42.21585937 -8.2734375 42.23046875 C-11.83412996 41.92949331 -13.9398247 41.10996254 -16.4140625 38.51953125 C-21.65584715 31.13030579 -22.78725434 23.9437255 -22 15 C-20.95375444 9.06436922 -18.05102393 5.05682188 -13.3828125 1.29296875 C-9.01184007 -1.07882121 -4.79532909 -0.92528555 0 0 Z " fill="#0A467F" transform="translate(275,353)"/>
<path d="M0 0 C5.7383485 4.1605539 9.04761435 9.63834653 10.23046875 16.6171875 C11.06741331 26.47791618 9.62024307 35.76689334 3.23046875 43.6171875 C1.29779308 45.4074055 -0.6806426 47.00304627 -2.76953125 48.6171875 C3.66546875 50.1021875 3.66546875 50.1021875 10.23046875 51.6171875 C9.90046875 53.5971875 9.57046875 55.5771875 9.23046875 57.6171875 C6.68803971 56.99516804 4.14655 56.36966991 1.60546875 55.7421875 C0.89261719 55.56816406 0.17976563 55.39414062 -0.5546875 55.21484375 C-3.75137885 54.42300277 -6.863749 53.58551479 -9.98828125 52.53515625 C-12.5699728 51.683053 -14.96310277 51.20470388 -17.64453125 50.8046875 C-23.61329283 49.62888635 -28.448847 47.5342817 -32.3046875 42.6875 C-37.78981847 34.2119332 -38.59468692 26.54961687 -37.76953125 16.6171875 C-35.87873933 8.69630243 -32.23383747 4.16239207 -25.70703125 -0.6328125 C-17.63499236 -5.44168673 -7.99683872 -4.50060558 0 0 Z M-27.76953125 9.6171875 C-31.75956616 16.03359499 -31.77065357 23.9235198 -30.23046875 31.14453125 C-28.68353546 36.25281094 -26.69565041 40.8130661 -21.9765625 43.72265625 C-17.72794872 45.44466077 -13.26257012 45.13887561 -8.76953125 44.6171875 C-2.91115576 41.84777363 -0.15195779 37.6585259 2.48046875 31.8671875 C4.20908567 24.37651416 3.99712007 16.47040032 0.23046875 9.6171875 C-3.93663707 5.02565424 -7.65670403 2.46469877 -13.89453125 2.1171875 C-20.41680791 2.18566285 -23.82197131 4.54728208 -27.76953125 9.6171875 Z " fill="#F2F5F8" transform="translate(283.76953125,350.3828125)"/>
<path d="M0 0 C-0.66 1.98 -1.32 3.96 -2 6 C-2.53496094 5.84015625 -3.06992188 5.6803125 -3.62109375 5.515625 C-6.47318669 4.89743737 -9.14479714 4.79338592 -12.0625 4.75 C-13.10535156 4.72421875 -14.14820313 4.6984375 -15.22265625 4.671875 C-17.99916667 4.77059453 -17.99916667 4.77059453 -19.83984375 6.3359375 C-21.70891486 9.01682737 -21.50825081 10.82343243 -21 14 C-17.0367867 18.70400084 -12.66595061 20.84632772 -7.08398438 23.22851562 C-2.51838975 25.32622126 -0.34023865 27.57700617 2 32 C2.69442584 37.3818003 2.12588253 41.47308278 -0.5546875 46.234375 C-3.95785638 50.39175968 -8.56693205 51.69932257 -13.75 52.33984375 C-19.84647511 52.55152691 -24.46392557 51.50690163 -30 49 C-29.67 47.35 -29.34 45.7 -29 44 C-28.2575 44.165 -27.515 44.33 -26.75 44.5 C-16.50789479 46.00868325 -16.50789479 46.00868325 -7 43 C-5.35520077 39.71040154 -5.08429948 36.5135768 -6 33 C-8.30378838 30.65227015 -11.04938948 29.39715908 -14 28 C-15.77135715 27.12606091 -17.54218927 26.25105685 -19.3125 25.375 C-20.54419922 24.79878906 -20.54419922 24.79878906 -21.80078125 24.2109375 C-24.81093209 22.55348322 -26.51637356 20.82216494 -28.25 17.875 C-29.62104081 12.61934355 -29.04569892 7.8500827 -26.375 3.125 C-19.09441657 -3.38920622 -8.77085156 -4.03202151 0 0 Z " fill="#F1F4F7" transform="translate(238,349)"/>
<path d="M0 0 C2.31 0 4.62 0 7 0 C7 15.18 7 30.36 7 46 C14.26 46 21.52 46 29 46 C29 47.98 29 49.96 29 52 C19.43 52 9.86 52 0 52 C0 34.84 0 17.68 0 0 Z " fill="#F6F8FA" transform="translate(303,348)"/>
<path d="M0 0 C2.8805515 2.46904414 3.98166827 4.25750482 5.1875 7.875 C5.47210999 12.62129018 4.83805833 15.89916251 2.1875 19.875 C-1.76233597 22.50822398 -5.09084015 23.1840541 -9.8125 22.875 C-13.07918379 21.4547027 -15.5309863 19.61281644 -17.8125 16.875 C-19.01893566 13.25569302 -19.13518559 10.68268995 -18.8125 6.875 C-17.19929279 3.82142921 -15.78189098 1.63666434 -13.0625 -0.5 C-8.43949199 -1.78416889 -4.39955974 -1.7598239 0 0 Z " fill="#08457E" transform="translate(484.8125,421.125)"/>
<path d="M0 0 C3.50252011 2.04313673 5.77361702 4.09787233 7 8 C7.480151 12.32135899 7.29173086 14.4668367 5.1875 18.3125 C2.9074753 21.11367321 1.34717449 22.80363219 -2.3046875 23.3359375 C-6.57276853 23.40080195 -9.24596584 23.43985326 -13 21.25 C-15.97870059 17.89896183 -16.87462312 16.12839194 -17.375 11.625 C-16.93060645 7.32919568 -15.70408706 5.32216411 -13 2 C-8.7567553 -0.8288298 -4.98265471 -0.65268001 0 0 Z " fill="#08457E" transform="translate(483,347)"/>
<path d="M0 0 C2.49457182 1.45425912 3.95967407 2.86014597 6 5 C6 6.32 6 7.64 6 9 C0.06 9.495 0.06 9.495 -6 10 C-6 10.66 -6 11.32 -6 12 C-2.04 12.33 1.92 12.66 6 13 C4.99282785 18.03586076 4.65953092 18.89494346 1 22 C-2.21498139 23.6074907 -5.51298258 23.47314549 -9 23 C-12.13180809 21.37609951 -14.24339744 19.99733974 -16.375 17.1875 C-17.59875016 12.90437443 -17.59895652 9.31770435 -15.75 5.25 C-11.29526015 -0.47752266 -7.03657993 -1.66969693 0 0 Z " fill="#08457E" transform="translate(483,274)"/>
</svg>
